<svg id="Grupo_286" data-name="Grupo 286" xmlns="http://www.w3.org/2000/svg" xmlns:xlink="http://www.w3.org/1999/xlink" width="42.858" height="42.858" viewBox="0 0 42.858 42.858">
  <defs>
    <clipPath id="clip-path">
      <rect id="Rectángulo_144" data-name="Rectángulo 144" width="42.858" height="42.858" fill="none"/>
    </clipPath>
  </defs>
  <g id="Grupo_247" data-name="Grupo 247" transform="translate(0 0)" clip-path="url(#clip-path)">
    <ellipse id="Elipse_25" data-name="Elipse 25" cx="21.128" cy="21.128" rx="21.128" ry="21.128" transform="translate(0.302 0.301)" fill="#5b3fc0" stroke="#fff" stroke-miterlimit="10" stroke-width="1"/>
    <path id="Trazado_295" data-name="Trazado 295" d="M28.845,20.5c2.718,0,3.04.01,4.113.059a5.647,5.647,0,0,1,1.89.351,3.368,3.368,0,0,1,1.932,1.932,5.615,5.615,0,0,1,.351,1.89c.049,1.073.059,1.4.059,4.113s-.01,3.04-.059,4.114a5.622,5.622,0,0,1-.351,1.89,3.373,3.373,0,0,1-1.932,1.932,5.635,5.635,0,0,1-1.89.35c-1.073.049-1.395.06-4.113.06s-3.04-.011-4.113-.06a5.635,5.635,0,0,1-1.89-.35,3.373,3.373,0,0,1-1.932-1.932,5.622,5.622,0,0,1-.351-1.89c-.049-1.073-.059-1.4-.059-4.114s.01-3.04.059-4.113a5.615,5.615,0,0,1,.351-1.89,3.368,3.368,0,0,1,1.932-1.932,5.647,5.647,0,0,1,1.89-.351c1.073-.049,1.4-.059,4.113-.059m0-1.834c-2.765,0-3.111.011-4.2.061a7.466,7.466,0,0,0-2.471.473A5.206,5.206,0,0,0,19.2,22.177a7.478,7.478,0,0,0-.473,2.471c-.049,1.086-.061,1.433-.061,4.2s.011,3.111.061,4.2a7.478,7.478,0,0,0,.473,2.471,5.206,5.206,0,0,0,2.977,2.977,7.482,7.482,0,0,0,2.471.473c1.085.049,1.432.061,4.2.061s3.111-.012,4.2-.061a7.482,7.482,0,0,0,2.471-.473,5.206,5.206,0,0,0,2.977-2.977,7.478,7.478,0,0,0,.473-2.471c.049-1.085.061-1.432.061-4.2s-.011-3.111-.061-4.2a7.478,7.478,0,0,0-.473-2.471A5.206,5.206,0,0,0,35.513,19.2a7.466,7.466,0,0,0-2.471-.473c-1.085-.05-1.432-.061-4.2-.061" transform="translate(-7.416 -7.416)" fill="#fff"/>
    <path id="Trazado_296" data-name="Trazado 296" d="M32.109,26.882a5.227,5.227,0,1,0,5.227,5.227,5.227,5.227,0,0,0-5.227-5.227m0,8.62A3.393,3.393,0,1,1,35.5,32.109,3.393,3.393,0,0,1,32.109,35.5" transform="translate(-10.68 -10.68)" fill="#fff"/>
    <path id="Trazado_297" data-name="Trazado 297" d="M44.986,25.734a1.221,1.221,0,1,1-1.222-1.222,1.222,1.222,0,0,1,1.222,1.222" transform="translate(-16.902 -9.738)" fill="#fff"/>
  </g>
</svg>
