<svg xmlns="http://www.w3.org/2000/svg" xmlns:xlink="http://www.w3.org/1999/xlink" width="25.153" height="25.154" viewBox="0 0 25.153 25.154">
  <defs>
    <clipPath id="clip-path">
      <rect id="Rectángulo_445" data-name="Rectángulo 445" width="25.153" height="25.154" transform="translate(0 0)" fill="none"/>
    </clipPath>
  </defs>
  <g id="Grupo_849" data-name="Grupo 849" transform="translate(0 0)">
    <g id="Grupo_848" data-name="Grupo 848" clip-path="url(#clip-path)">
      <path id="Trazado_4982" data-name="Trazado 4982" d="M10.98,25.055A12.578,12.578,0,1,0,12.577,0,12.584,12.584,0,0,0,.094,14.144,12.611,12.611,0,0,0,10.98,25.055m-1.3-1.707A11.212,11.212,0,0,1,2.92,18.162L2.593,17.6H6.967l.1.226a20.8,20.8,0,0,0,2.994,4.921l.443.542a.151.151,0,0,1-.157.242ZM7.345,12.58a11.4,11.4,0,0,1,.531-3.354l.083-.262h9.234l.083.262a11.4,11.4,0,0,1,.531,3.348,11.409,11.409,0,0,1-.531,3.354l-.083.262H7.959l-.083-.262a11.4,11.4,0,0,1-.531-3.348m4.986,10.631-.018-.019a21.442,21.442,0,0,1-3.548-5.049L8.489,17.6h8.176l-.276.544a21.7,21.7,0,0,1-3.543,5.044l-.023.024a.337.337,0,0,1-.492,0m9.9-5.051a11.2,11.2,0,0,1-6.748,5.188l-.581.158a.182.182,0,0,1-.189-.291l.378-.463a20.94,20.94,0,0,0,2.994-4.927l.1-.226h4.374Zm.993-8.934a11.146,11.146,0,0,1,0,6.7l-.083.263H18.673l.125-.471a12.637,12.637,0,0,0,.42-3.144,12.63,12.63,0,0,0-.42-3.14l-.125-.471h4.473Zm-7.741-7.42A11.194,11.194,0,0,1,22.233,6.99l.328.565H18.187l-.1-.226a20.9,20.9,0,0,0-3-4.931l-.44-.538a.15.15,0,0,1,.155-.239Zm-2.652.149.015.016a21.62,21.62,0,0,1,3.539,5.041l.276.543H8.489l.276-.544a21.526,21.526,0,0,1,3.554-5.056.355.355,0,0,1,.516,0M2.921,6.991A11.208,11.208,0,0,1,9.673,1.806l.648-.176a.16.16,0,0,1,.166.255l-.428.523A20.8,20.8,0,0,0,7.065,7.329l-.1.226H2.593ZM2.006,8.964H6.481l-.125.471a12.556,12.556,0,0,0-.419,3.144,12.549,12.549,0,0,0,.419,3.14l.125.471H2.006l-.082-.263a11.156,11.156,0,0,1,0-6.7Z" fill="#430080"/>
    </g>
  </g>
</svg>
