<svg id="Grupo_284" data-name="Grupo 284" xmlns="http://www.w3.org/2000/svg" xmlns:xlink="http://www.w3.org/1999/xlink" width="42.858" height="42.858" viewBox="0 0 42.858 42.858">
  <defs>
    <clipPath id="clip-path">
      <rect id="Rectángulo_142" data-name="Rectángulo 142" width="42.858" height="42.858" fill="none"/>
    </clipPath>
  </defs>
  <g id="Grupo_243" data-name="Grupo 243" transform="translate(0 0)" clip-path="url(#clip-path)">
    <ellipse id="Elipse_23" data-name="Elipse 23" cx="21.128" cy="21.128" rx="21.128" ry="21.128" transform="translate(0.302 0.301)" fill="none" stroke="#fff" stroke-miterlimit="10" stroke-width="1"/>
    <path id="Trazado_293" data-name="Trazado 293" d="M37.478,20.247a10.132,10.132,0,0,0-15.945,12.22L20.1,37.715l5.37-1.409a10.122,10.122,0,0,0,4.841,1.233h0a10.131,10.131,0,0,0,7.166-17.293M30.311,35.829h0a8.407,8.407,0,0,1-4.286-1.173l-.307-.183-3.187.836.85-3.106-.2-.318a8.421,8.421,0,1,1,7.133,3.945m4.619-6.3c-.253-.127-1.5-.739-1.73-.823s-.4-.127-.569.127-.654.823-.8.992-.295.19-.548.063a6.9,6.9,0,0,1-2.036-1.256,7.634,7.634,0,0,1-1.408-1.753c-.148-.253-.016-.391.111-.517s.253-.3.38-.444a1.725,1.725,0,0,0,.253-.422.467.467,0,0,0-.021-.444c-.063-.126-.57-1.372-.781-1.879s-.414-.427-.57-.434-.316-.009-.485-.009a.928.928,0,0,0-.674.316,2.835,2.835,0,0,0-.887,2.111A4.922,4.922,0,0,0,26.2,27.773a11.283,11.283,0,0,0,4.325,3.821,14.58,14.58,0,0,0,1.443.533,3.477,3.477,0,0,0,1.595.1,2.605,2.605,0,0,0,1.708-1.2,2.116,2.116,0,0,0,.148-1.2c-.063-.105-.232-.169-.485-.3" transform="translate(-7.984 -6.864)" fill="#fff" fill-rule="evenodd"/>
  </g>
</svg>
