<svg id="Grupo_283" data-name="Grupo 283" xmlns="http://www.w3.org/2000/svg" xmlns:xlink="http://www.w3.org/1999/xlink" width="42.858" height="42.858" viewBox="0 0 42.858 42.858">
  <defs>
    <clipPath id="clip-path">
      <rect id="Rectángulo_141" data-name="Rectángulo 141" width="42.858" height="42.858" fill="#3b1484"/>
    </clipPath>
  </defs>
  <g id="Grupo_241" data-name="Grupo 241" transform="translate(0 0)" clip-path="url(#clip-path)">
    <ellipse id="Elipse_22" data-name="Elipse 22" cx="21.128" cy="21.128" rx="21.128" ry="21.128" transform="translate(0.302 0.301)" fill="none" stroke="#fff" stroke-miterlimit="10" stroke-width="1"/>
    <path id="Trazado_290" data-name="Trazado 290" d="M34.839,30.345c.224-.251.409-.507.638-.724A3.5,3.5,0,0,1,38,28.627a5.827,5.827,0,0,1,1.585.193,3.094,3.094,0,0,1,2.2,2.312,9.675,9.675,0,0,1,.293,2.65c0,1.884-.005,3.766,0,5.649,0,.177-.049.222-.222.221q-1.456-.012-2.911,0c-.171,0-.207-.051-.207-.212q.008-2.688,0-5.376a4.822,4.822,0,0,0-.156-1.334,1.5,1.5,0,0,0-1.65-1.169,1.8,1.8,0,0,0-1.895,1.8,6.634,6.634,0,0,0-.051.84c0,1.742,0,3.486,0,5.228,0,.174-.043.225-.22.223q-1.466-.013-2.932,0c-.157,0-.2-.041-.2-.2q.006-5.175,0-10.35c0-.171.055-.21.217-.209q1.392.01,2.784,0c.171,0,.215.054.211.215-.01.412,0,.825,0,1.237" transform="translate(-12.566 -11.373)" fill="#fff"/>
    <path id="Trazado_291" data-name="Trazado 291" d="M25.927,34.461c0,1.707,0,3.414,0,5.121,0,.189-.046.247-.243.245-.97-.011-1.94-.008-2.909,0-.156,0-.2-.037-.2-.2q.007-5.183,0-10.367c0-.143.035-.193.187-.193.984.007,1.967.008,2.951,0,.189,0,.215.072.215.234q-.007,2.581,0,5.162" transform="translate(-8.969 -11.547)" fill="#fff"/>
    <path id="Trazado_292" data-name="Trazado 292" d="M26.025,22.115a1.937,1.937,0,1,1-1.934-1.927,1.943,1.943,0,0,1,1.934,1.927" transform="translate(-8.8 -8.021)" fill="#fff"/>
  </g>
</svg>
