<svg xmlns="http://www.w3.org/2000/svg" xmlns:xlink="http://www.w3.org/1999/xlink" width="27.413" height="27.414" viewBox="0 0 27.413 27.414">
  <defs>
    <clipPath id="clip-path">
      <rect id="Rectángulo_445" data-name="Rectángulo 445" width="27.413" height="27.414" fill="none"/>
    </clipPath>
  </defs>
  <g id="Grupo_852" data-name="Grupo 852" transform="translate(0 0)">
    <g id="Grupo_848" data-name="Grupo 848" transform="translate(0 0)" clip-path="url(#clip-path)">
      <path id="Trazado_4982" data-name="Trazado 4982" d="M11.966,27.306A13.708,13.708,0,1,0,13.707,0,13.714,13.714,0,0,0,.1,15.415,13.744,13.744,0,0,0,11.966,27.306m-1.422-1.86a12.219,12.219,0,0,1-7.362-5.652l-.356-.614H7.593l.107.246a22.665,22.665,0,0,0,3.263,5.363l.483.591a.165.165,0,0,1-.171.264ZM8,13.71a12.428,12.428,0,0,1,.579-3.655l.09-.286H18.738l.09.286a12.419,12.419,0,0,1,.579,3.649,12.433,12.433,0,0,1-.579,3.655l-.09.286H8.674l-.09-.286A12.424,12.424,0,0,1,8,13.71M13.439,25.3l-.02-.021a23.368,23.368,0,0,1-3.867-5.5l-.3-.593h8.911l-.3.593A23.654,23.654,0,0,1,14,25.27l-.025.026a.368.368,0,0,1-.536,0m10.794-5.5a12.208,12.208,0,0,1-7.354,5.654l-.633.172a.2.2,0,0,1-.206-.317l.412-.5a22.822,22.822,0,0,0,3.263-5.37l.107-.246h4.767Zm1.082-9.737a12.147,12.147,0,0,1,0,7.3l-.09.287H20.351l.136-.513a13.772,13.772,0,0,0,.458-3.426,13.765,13.765,0,0,0-.458-3.422l-.136-.513h4.875ZM16.878,1.968a12.2,12.2,0,0,1,7.352,5.65l.357.616H19.821l-.107-.246a22.78,22.78,0,0,0-3.266-5.374l-.48-.586a.163.163,0,0,1,.169-.26Zm-2.89.162L14,2.148a23.563,23.563,0,0,1,3.857,5.494l.3.592H9.252l.3-.593a23.46,23.46,0,0,1,3.873-5.51.387.387,0,0,1,.562,0M3.183,7.619a12.215,12.215,0,0,1,7.359-5.651l.706-.192a.174.174,0,0,1,.181.278l-.466.57A22.665,22.665,0,0,0,7.7,7.987l-.107.246H2.826Zm-1,2.15H7.063l-.136.513a13.684,13.684,0,0,0-.457,3.426,13.676,13.676,0,0,0,.457,3.422l.136.513H2.186L2.1,17.358a12.159,12.159,0,0,1,0-7.3Z" transform="translate(0 0)" fill="#430080"/>
    </g>
  </g>
</svg>
