<svg id="Grupo_517" data-name="Grupo 517" xmlns="http://www.w3.org/2000/svg" xmlns:xlink="http://www.w3.org/1999/xlink" width="99.473" height="57.317" viewBox="0 0 99.473 57.317">
  <defs>
    <clipPath id="clip-path">
      <rect id="Rectángulo_286" data-name="Rectángulo 286" width="99.473" height="57.317" fill="none"/>
    </clipPath>
  </defs>
  <g id="Grupo_517-2" data-name="Grupo 517" transform="translate(0 0)" clip-path="url(#clip-path)">
    <path id="Trazado_4639" data-name="Trazado 4639" d="M98.4,52.371H1.5C1.5,28.01,23.192,8.264,49.95,8.264S98.4,28.01,98.4,52.371" transform="translate(-0.213 -1.176)" fill="#fff"/>
    <path id="Trazado_4640" data-name="Trazado 4640" d="M98.4,52.371H1.5C1.5,28.01,23.192,8.264,49.95,8.264S98.4,28.01,98.4,52.371Z" transform="translate(-0.213 -1.176)" fill="none" stroke="#5b3faf" stroke-linecap="round" stroke-linejoin="round" stroke-width="3"/>
    <path id="Trazado_4641" data-name="Trazado 4641" d="M15.554,57.019a30.972,30.972,0,0,1,.475-5.09,2.5,2.5,0,0,1,4.926.873,26.806,26.806,0,0,0-.4,4.213Z" transform="translate(-2.212 -7.092)" fill="#8f7bd4"/>
    <path id="Trazado_4642" data-name="Trazado 4642" d="M99.746,57.019a30.973,30.973,0,0,0-.475-5.09,2.5,2.5,0,0,0-4.926.873,26.8,26.8,0,0,1,.4,4.213Z" transform="translate(-13.412 -7.092)" fill="#8f7bd4"/>
    <path id="Trazado_4643" data-name="Trazado 4643" d="M25.966,37.922a2.5,2.5,0,0,1-1.919-4.1A35.5,35.5,0,0,1,32.3,26.6a2.5,2.5,0,1,1,2.68,4.221,30.531,30.531,0,0,0-7.093,6.2,2.494,2.494,0,0,1-1.921.9m21.99-11.909a2.5,2.5,0,0,1-.338-4.977,40.471,40.471,0,0,1,10.881,0A2.5,2.5,0,1,1,57.86,26l-.038-.005a35.479,35.479,0,0,0-9.524,0,2.531,2.531,0,0,1-.342.024" transform="translate(-3.338 -2.94)" fill="#8f7bd4"/>
    <path id="Trazado_4644" data-name="Trazado 4644" d="M50.56,57.888h0a8.905,8.905,0,0,1,2.276-14.08L74.754,32.344a1.486,1.486,0,0,1,1.987,2.036L64.754,56.015A8.906,8.906,0,0,1,50.56,57.888" transform="translate(-6.835 -4.576)" fill="#8b7bd0"/>
    <path id="Trazado_4645" data-name="Trazado 4645" d="M50.56,57.888h0a8.905,8.905,0,0,1,2.276-14.08L74.754,32.344a1.486,1.486,0,0,1,1.987,2.036L64.754,56.015A8.906,8.906,0,0,1,50.56,57.888" transform="translate(-6.835 -4.576)" fill="none" stroke="#5b3faf" stroke-linecap="round" stroke-linejoin="round" stroke-width="3"/>
    <path id="Trazado_4646" data-name="Trazado 4646" d="M91.212,30.949a2.784,2.784,0,0,1-1.164-.26,2.678,2.678,0,0,1-1.473-3.218l1.916-6.339H85.978a3.679,3.679,0,0,1-3.527-4.748L86.161,4.115A3.66,3.66,0,0,1,89.69,1.5h4.529A3.19,3.19,0,0,1,97.2,5.809L95.14,11.316h3.137a3.681,3.681,0,0,1,3.048,5.748L93.474,29.7a2.7,2.7,0,0,1-2.262,1.247" transform="translate(-11.704 -0.214)" fill="#e6cd60"/>
    <path id="Trazado_4647" data-name="Trazado 4647" d="M91.212,30.949a2.784,2.784,0,0,1-1.164-.26,2.678,2.678,0,0,1-1.473-3.218l1.916-6.339H85.978a3.679,3.679,0,0,1-3.527-4.748L86.161,4.115A3.66,3.66,0,0,1,89.69,1.5h4.529A3.19,3.19,0,0,1,97.2,5.809L95.14,11.316h3.137a3.681,3.681,0,0,1,3.048,5.748L93.474,29.7a2.7,2.7,0,0,1-2.262,1.247" transform="translate(-11.704 -0.214)" fill="none" stroke="#5b3faf" stroke-linecap="round" stroke-linejoin="round" stroke-width="3"/>
  </g>
</svg>
