<svg xmlns="http://www.w3.org/2000/svg" xmlns:xlink="http://www.w3.org/1999/xlink" width="62.416" height="60.58" viewBox="0 0 62.416 60.58">
  <defs>
    <clipPath id="clip-path">
      <rect id="Rectángulo_124" data-name="Rectángulo 124" width="62.416" height="60.58" transform="translate(0 0)" fill="none"/>
    </clipPath>
  </defs>
  <g id="Grupo_223" data-name="Grupo 223" transform="translate(2 2)">
    <g id="Grupo_222" data-name="Grupo 222" transform="translate(-2 -2)" clip-path="url(#clip-path)">
      <path id="Trazado_257" data-name="Trazado 257" d="M28.962,4.581A26.334,26.334,0,1,1,2.628,30.915,26.333,26.333,0,0,1,28.962,4.581" transform="translate(0.527 -0.423)" fill="#f4db60"/>
      <path id="Trazado_258" data-name="Trazado 258" d="M46.827,49.434a28.617,28.617,0,0,0,0-39.763,26.961,26.961,0,0,0-38.793,0,28.617,28.617,0,0,0,0,39.763,26.959,26.959,0,0,0,38.793,0M3.577,29.553A24.7,24.7,0,0,1,9.354,13.618l12.79,13.11a6.193,6.193,0,0,0-.678,2.825A5.965,5.965,0,1,0,27.43,23.44a5.812,5.812,0,0,0-2.755.695l-2.607-2.672a9.313,9.313,0,0,1,5.362-1.69,9.783,9.783,0,0,1,0,19.559,9.509,9.509,0,0,1-8.406-5.148,1.767,1.767,0,0,0-2.424-.745,1.858,1.858,0,0,0-.726,2.484A13.069,13.069,0,0,0,27.43,43a13.451,13.451,0,0,0,0-26.894,12.813,12.813,0,0,0-7.926,2.73l-2.543-2.606a16.34,16.34,0,0,1,16.783-2.52,1.774,1.774,0,0,0,2.334-1,1.85,1.85,0,0,0-.977-2.392A19.849,19.849,0,0,0,14.42,13.624l-2.536-2.6A23.414,23.414,0,0,1,27.43,5.1c13.153,0,23.853,10.968,23.853,24.449S40.582,54,27.43,54,3.577,43.034,3.577,29.553m26.6.069a2.781,2.781,0,0,0-2.743-2.812,2.7,2.7,0,0,0-1.938.826l-.005,0,0,0a2.84,2.84,0,0,0-.8,1.979,2.744,2.744,0,1,0,5.486,0" transform="translate(1.805 1.106)" fill="#5b3fbd" fill-rule="evenodd"/>
      <path id="Trazado_259" data-name="Trazado 259" d="M54.5,50.19a19.537,19.537,0,0,0-1.53-7.6,1.83,1.83,0,0,0-2.368-.968,1.759,1.759,0,0,0-.99,2.314,16.09,16.09,0,0,1,1.258,6.259,16.769,16.769,0,0,1-16.943,16.55A16.769,16.769,0,0,1,16.981,50.19a16.174,16.174,0,0,1,.67-4.616,1.768,1.768,0,0,0-1.236-2.2,1.822,1.822,0,0,0-2.25,1.207,19.641,19.641,0,0,0-.815,5.606,20.362,20.362,0,0,0,20.573,20.1A20.362,20.362,0,0,0,54.5,50.19" transform="translate(-4.687 -18.369)" fill="#5b3fbd" fill-rule="evenodd"/>
      <path id="Trazado_260" data-name="Trazado 260" d="M25.365,50.9a2.743,2.743,0,1,0,2.743-2.743A2.743,2.743,0,0,0,25.365,50.9" transform="translate(-10.53 -21.616)" fill="#5b3fbd" fill-rule="evenodd"/>
      <path id="Trazado_261" data-name="Trazado 261" d="M73.424,28.208a2.743,2.743,0,1,0,2.743-2.743,2.743,2.743,0,0,0-2.743,2.743" transform="translate(-33.902 -10.579)" fill="#5f67f1" fill-rule="evenodd"/>
      <path id="Trazado_262" data-name="Trazado 262" d="M71.113,23.641a11.82,11.82,0,1,0-11.82-11.82,11.82,11.82,0,0,0,11.82,11.82" transform="translate(-24.676 5.647)" fill="#430083" fill-rule="evenodd"/>
      <path id="Trazado_263" data-name="Trazado 263" d="M75.334,23.227l3.937,3.785,7.515-8.318" transform="translate(-34.117 -5.248)" fill="none" stroke="#fff" stroke-linecap="round" stroke-linejoin="round" stroke-width="3"/>
    </g>
  </g>
</svg>
