<svg xmlns="http://www.w3.org/2000/svg" xmlns:xlink="http://www.w3.org/1999/xlink" width="369.285" height="340.68" viewBox="0 0 369.285 340.68">
  <defs>
    <clipPath id="clip-path">
      <rect id="Rectángulo_56" data-name="Rectángulo 56" width="247.384" height="221.942" fill="none"/>
    </clipPath>
    <clipPath id="clip-path-2">
      <rect id="Rectángulo_170" data-name="Rectángulo 170" width="48.811" height="48.811" fill="none"/>
    </clipPath>
    <clipPath id="clip-path-3">
      <rect id="Rectángulo_174" data-name="Rectángulo 174" width="62.648" height="62.648" fill="none"/>
    </clipPath>
    <clipPath id="clip-path-4">
      <rect id="Rectángulo_175" data-name="Rectángulo 175" width="55.896" height="55.896" fill="none"/>
    </clipPath>
    <clipPath id="clip-path-5">
      <rect id="Rectángulo_169" data-name="Rectángulo 169" width="300.388" height="283.897" fill="none"/>
    </clipPath>
    <clipPath id="clip-path-6">
      <rect id="Rectángulo_179" data-name="Rectángulo 179" width="55.034" height="55.034" fill="none"/>
    </clipPath>
    <clipPath id="clip-path-7">
      <rect id="Rectángulo_180" data-name="Rectángulo 180" width="55.884" height="55.884" fill="none"/>
    </clipPath>
    <clipPath id="clip-path-8">
      <rect id="Rectángulo_176" data-name="Rectángulo 176" width="41.69" height="41.69" transform="translate(0 0)" fill="none"/>
    </clipPath>
  </defs>
  <g id="Grupo_914" data-name="Grupo 914" transform="translate(-167.613 -2169.741)">
    <g id="Grupo_96" data-name="Grupo 96" transform="translate(289.513 2237.515)">
      <g id="Grupo_95" data-name="Grupo 95" transform="translate(0)" clip-path="url(#clip-path)">
        <path id="Trazado_93" data-name="Trazado 93" d="M119.9,207.229,34.433,147.207A80.953,80.953,0,1,1,127.486,14.712L212.95,74.735A80.953,80.953,0,0,1,119.9,207.229" transform="translate(0 0)" fill="#43008a"/>
      </g>
    </g>
    <g id="Grupo_329" data-name="Grupo 329" transform="translate(230.181 2410.983) rotate(9)">
      <g id="Grupo_328" data-name="Grupo 328" transform="translate(0 0)" clip-path="url(#clip-path-2)">
        <path id="Trazado_351" data-name="Trazado 351" d="M47.649,23.825A23.825,23.825,0,1,1,23.825,0,23.825,23.825,0,0,1,47.649,23.825" transform="translate(0.581 0.581)" fill="#fff"/>
        <ellipse id="Elipse_31" data-name="Elipse 31" cx="23.825" cy="23.825" rx="23.825" ry="23.825" transform="translate(0.581 0.581)" fill="none" stroke="#420280" stroke-linecap="round" stroke-linejoin="round" stroke-width="2"/>
        <path id="Trazado_352" data-name="Trazado 352" d="M1.036,9.1H0C0,6.58,2.371,5.52,4.665,4.5,7.033,3.438,9.27,2.438,9.27,0h1.036c0,3.11-2.773,4.348-5.218,5.441C2.914,6.412,1.036,7.251,1.036,9.1" transform="translate(12.349 29.725)" fill="#420280"/>
        <path id="Trazado_353" data-name="Trazado 353" d="M10.3,9.1H9.27c0-1.849-1.878-2.688-4.052-3.66C2.772,4.348,0,3.11,0,0H1.035c0,2.438,2.237,3.438,4.6,4.5C7.934,5.52,10.3,6.58,10.3,9.1" transform="translate(26.157 29.725)" fill="#420280"/>
        <path id="Trazado_354" data-name="Trazado 354" d="M14.145,3.222H2.907A2.574,2.574,0,0,1,.538,1.661L0,.408.951,0l.537,1.252a1.541,1.541,0,0,0,1.418.935H14.145a1.541,1.541,0,0,0,1.418-.935L16.1,0l.951.408-.537,1.252a2.574,2.574,0,0,1-2.369,1.561" transform="translate(15.88 34.883)" fill="#420280"/>
        <path id="Trazado_355" data-name="Trazado 355" d="M15.571,18.285a6.9,6.9,0,0,1-1.061-.093l.161-1.023c1.808.285,2.34-.249,2.649-.868a3.125,3.125,0,0,0,.113-1.851c-.027-.274-.057-.58-.082-.928a6.638,6.638,0,0,1,.325-2.774,5.079,5.079,0,0,0,.29-1.852,7.484,7.484,0,0,0-2.689-5.482,8.5,8.5,0,0,0-3.7-1.44l-.117-.013-.1-.061A5.6,5.6,0,0,0,8.75,1.05,6.918,6.918,0,0,0,2.8,3.585,6.394,6.394,0,0,0,1.389,9.042l.042.189a6.132,6.132,0,0,1,.181,1.79,5.492,5.492,0,0,1-.4,1.782,2.587,2.587,0,0,0-.174.593,3.46,3.46,0,0,0,.86,2.338,3.832,3.832,0,0,0,2.986,1.128V17.9a4.816,4.816,0,0,1-3.755-1.469A4.475,4.475,0,0,1,.012,13.288a3.382,3.382,0,0,1,.233-.845,4.532,4.532,0,0,0,.335-1.477A5.139,5.139,0,0,0,.422,9.46L.375,9.247A7.385,7.385,0,0,1,2,2.938,8.085,8.085,0,0,1,8.813.017,6.587,6.587,0,0,1,11.8.958a9.483,9.483,0,0,1,4.1,1.63A8.569,8.569,0,0,1,19,8.87a6.068,6.068,0,0,1-.335,2.18,5.614,5.614,0,0,0-.283,2.4c.024.338.054.635.081.9a4.021,4.021,0,0,1-.217,2.417,2.744,2.744,0,0,1-2.674,1.521" transform="translate(14.557 9.986)" fill="#420280"/>
        <path id="Trazado_356" data-name="Trazado 356" d="M7.043,17.677c-3.38,0-6.254-2.921-6.992-7.1L0,10.284l.221-.192A5.544,5.544,0,0,0,2.4,5.885c.049-.429.081-.809.11-1.152a5.727,5.727,0,0,1,.981-3.326A3.1,3.1,0,0,1,5.391.06,3.819,3.819,0,0,1,8.522.867a6.948,6.948,0,0,1,2.152,4.059,4.115,4.115,0,0,0,.1-1.9c-.052-.353-.124-.837.32-1.061a1.184,1.184,0,0,1,1.092.14c.591.344,1.583,1.323,1.826,4.049a2.322,2.322,0,0,1,1.6,2.421A2.3,2.3,0,0,1,13.949,11c-.853,3.951-3.645,6.674-6.907,6.674m-5.919-7c.716,3.475,3.17,5.968,5.919,5.968,2.823,0,5.334-2.628,5.972-6.249l.089-.507.558.1c.5,0,.909-.659.909-1.409s-.409-1.417-.875-1.417l-.08.016-.577.1-.03-.586c-.118-2.242-.745-3.216-1.182-3.582A5.5,5.5,0,0,1,10.8,7.046L9.9,8.4,9.846,6.78A7.055,7.055,0,0,0,7.868,1.669a2.761,2.761,0,0,0-2.3-.588,2.146,2.146,0,0,0-1.232.931,4.813,4.813,0,0,0-.789,2.81c-.03.351-.064.74-.113,1.18a6.5,6.5,0,0,1-2.306,4.672" transform="translate(17.363 13.079)" fill="#420280"/>
      </g>
    </g>
    <g id="Grupo_331" data-name="Grupo 331" transform="matrix(0.966, 0.259, -0.259, 0.966, 410.546, 2312.305)">
      <g id="Grupo_330" data-name="Grupo 330" clip-path="url(#clip-path-3)">
        <path id="Trazado_357" data-name="Trazado 357" d="M61.493,30.747A30.747,30.747,0,1,1,30.746,0,30.747,30.747,0,0,1,61.493,30.747" transform="translate(0.577 0.577)" fill="#fff"/>
        <path id="Trazado_358" data-name="Trazado 358" d="M61.493,30.747A30.747,30.747,0,1,1,30.746,0,30.747,30.747,0,0,1,61.493,30.747Z" transform="translate(0.577 0.577)" fill="none" stroke="#420280" stroke-linecap="round" stroke-linejoin="round" stroke-width="2"/>
        <path id="Trazado_359" data-name="Trazado 359" d="M1.336,12.108H0C0,7.764,3.013,6.979,5.672,6.287,8.682,5.5,11.282,4.826,11.282,0h1.336c0,5.859-3.665,6.813-6.61,7.58C3.4,8.259,1.336,8.8,1.336,12.108" transform="translate(15.764 37.421)" fill="#420280"/>
        <path id="Trazado_360" data-name="Trazado 360" d="M12.618,12.108H11.282C11.282,8.8,9.22,8.259,6.61,7.58,3.665,6.813,0,5.859,0,0H1.336c0,4.826,2.6,5.5,5.61,6.287,2.659.692,5.672,1.477,5.672,5.821" transform="translate(34.266 37.421)" fill="#420280"/>
        <path id="Trazado_361" data-name="Trazado 361" d="M11.05,14.913c-4.209,0-7.812-3.513-8.914-8.612A2.966,2.966,0,0,1,0,3.164C0,1.39,1.083,0,2.465,0a1.526,1.526,0,0,1,.3.033L2.571,1.357l-.119-.022c-.588,0-1.116.855-1.116,1.829s.528,1.828,1.129,1.828l.762-.135.116.656c.824,4.673,4.065,8.065,7.707,8.065s6.884-3.392,7.708-8.065l.116-.656.775.136c.589,0,1.116-.855,1.116-1.828s-.527-1.828-1.129-1.828l-.106.021L19.416.7,19.34.033a1.526,1.526,0,0,1,.3-.033C21.018,0,22.1,1.39,22.1,3.164A2.966,2.966,0,0,1,19.964,6.3c-1.1,5.1-4.7,8.612-8.914,8.612" transform="translate(20.273 24.203)" fill="#420280"/>
        <path id="Trazado_362" data-name="Trazado 362" d="M4.931,4.291H0V0H5.9ZM1.336,2.955H3.863l.366-1.619H1.336Z" transform="translate(24.974 25.085)" fill="#420280"/>
        <path id="Trazado_363" data-name="Trazado 363" d="M5.9,4.291H.97L0,0H5.9ZM2.037,2.955H4.565V1.336H1.671Z" transform="translate(31.643 25.085)" fill="#420280"/>
        <rect id="Rectángulo_171" data-name="Rectángulo 171" width="2.439" height="1.336" transform="translate(30.039 25.085)" fill="#420280"/>
        <rect id="Rectángulo_172" data-name="Rectángulo 172" width="1.336" height="2.815" transform="translate(22.757 25.538) rotate(-72.401)" fill="#420280"/>
        <rect id="Rectángulo_173" data-name="Rectángulo 173" width="2.939" height="1.336" transform="matrix(0.957, -0.29, 0.29, 0.957, 36.682, 25.114)" fill="#420280"/>
        <path id="Trazado_364" data-name="Trazado 364" d="M6.535,5.113,0,1.141.694,0,6.535,3.55,12.376,0l.694,1.141Z" transform="translate(24.724 42.527)" fill="#420280"/>
        <path id="Trazado_365" data-name="Trazado 365" d="M1.068,12.117c-.53-.919-2.091-5.036-.04-8.39A7.883,7.883,0,0,1,6.108.244a9.074,9.074,0,0,1,6.817,1.044c1.711,1.106,2.693,2.831,3.09,5.431l-1.32.2c-.435-2.85-1.562-3.907-2.495-4.51a7.823,7.823,0,0,0-5.795-.863A6.564,6.564,0,0,0,2.168,4.423c-1.9,3.113.036,6.99.058,7.027Z" transform="translate(21.312 13.118)" fill="#420280"/>
        <path id="Trazado_366" data-name="Trazado 366" d="M4.73,9.074l-1.137-.7A5.634,5.634,0,0,0,3.02,2.151,2.661,2.661,0,0,0,.426,1.43L0,.164a4,4,0,0,1,3.973,1.05,7.017,7.017,0,0,1,.758,7.86" transform="translate(35.527 16.179)" fill="#420280"/>
        <path id="Trazado_367" data-name="Trazado 367" d="M16.736,6.494,15.377,3.412a3.48,3.48,0,0,0-3.184-2.076H5.7A3.471,3.471,0,0,0,2.487,3.475L1.233,6.482,0,5.967,1.255,2.96A4.8,4.8,0,0,1,5.7,0h6.5A4.817,4.817,0,0,1,16.6,2.873l1.358,3.082Z" transform="translate(22.343 18.677)" fill="#420280"/>
      </g>
    </g>
    <g id="Grupo_333" data-name="Grupo 333" transform="matrix(0.951, -0.309, 0.309, 0.951, 196.254, 2385.746)">
      <g id="Grupo_332" data-name="Grupo 332" clip-path="url(#clip-path-4)">
        <path id="Trazado_368" data-name="Trazado 368" d="M54.865,27.433A27.433,27.433,0,1,1,27.432,0,27.433,27.433,0,0,1,54.865,27.433" transform="translate(0.515 0.515)" fill="#fff"/>
        <path id="Trazado_369" data-name="Trazado 369" d="M54.865,27.433A27.433,27.433,0,1,1,27.432,0,27.433,27.433,0,0,1,54.865,27.433Z" transform="translate(0.515 0.515)" fill="none" stroke="#420280" stroke-linecap="round" stroke-linejoin="round" stroke-width="2"/>
        <path id="Trazado_370" data-name="Trazado 370" d="M1.192,10.8H0C0,6.927,2.689,6.227,5.06,5.61c2.686-.7,5.006-1.3,5.006-5.61h1.192c0,5.228-3.27,6.079-5.9,6.763C3.031,7.369,1.192,7.848,1.192,10.8" transform="translate(14.065 32.965)" fill="#420280"/>
        <path id="Trazado_371" data-name="Trazado 371" d="M11.258,10.8H10.066c0-2.955-1.839-3.434-4.168-4.041C3.27,6.079,0,5.228,0,0H1.192c0,4.306,2.319,4.91,5.006,5.61,2.371.617,5.06,1.317,5.06,5.194" transform="translate(30.573 32.965)" fill="#420280"/>
        <path id="Trazado_372" data-name="Trazado 372" d="M9.859,13.882c-3.756,0-6.97-3.135-7.953-7.684A2.647,2.647,0,0,1,0,3.4,2.647,2.647,0,0,1,1.906.6C1.951.4,2,.2,2.052,0L3.2.309c-.087.323-.161.658-.221.994l-.1.585-.691-.121c-.526,0-1,.763-1,1.631S1.663,5.03,2.2,5.03l.681-.118.1.583c.735,4.169,3.627,7.2,6.877,7.2S16,9.664,16.736,5.495l.1-.583.643.11c.58,0,1.045-.758,1.045-1.623s-.471-1.631-1.007-1.631l-.094.019-.1-.587L17.256.606a1.361,1.361,0,0,1,.264-.03c1.233,0,2.2,1.24,2.2,2.823a2.647,2.647,0,0,1-1.906,2.8c-.983,4.55-4.2,7.684-7.953,7.684" transform="translate(18.089 20.595)" fill="#420280"/>
        <path id="Trazado_373" data-name="Trazado 373" d="M2.116,9.409l-.506-.255A3.662,3.662,0,0,1,.086,6.66a4.742,4.742,0,0,1,1.175-4.1C2.889.713,4.257.522,7.2.522a.447.447,0,0,1,.053,0A7.252,7.252,0,0,0,9.195.237,4.4,4.4,0,0,1,11.7.145c1.715.469,2.451,2.65,2.6,3.738l.036.257-.163.2C12.757,6.078,10.595,6.149,8.5,6.218a10.2,10.2,0,0,0-3.558.514A4.286,4.286,0,0,0,2.4,8.917Zm5.077-7.7c-2.867,0-3.745.167-5.038,1.635a3.513,3.513,0,0,0-.9,3.084,3.422,3.422,0,0,0,.5,1.248A5.434,5.434,0,0,1,4.48,5.634a11.187,11.187,0,0,1,3.984-.607c1.807-.06,3.52-.116,4.606-1.241-.163-.758-.671-2.213-1.687-2.491a3.3,3.3,0,0,0-1.9.1,8.507,8.507,0,0,1-2.236.321H7.193" transform="translate(18.84 12.128)" fill="#420280"/>
        <path id="Trazado_374" data-name="Trazado 374" d="M3.1,7.693l-.382-.6c-.56-.872-.91-1.48-1.248-2.068-.172-.3-.344-.6-.543-.93A7.1,7.1,0,0,1,0,.815v-.4L.372.263A3.491,3.491,0,0,1,2.111.025,3.668,3.668,0,0,1,5.033,2.46a4.666,4.666,0,0,1-1.41,4.756ZM1.22,1.243a6.091,6.091,0,0,0,.732,2.246c.2.34.378.643.553.947.238.412.481.835.8,1.354a3.335,3.335,0,0,0,.6-2.944A2.485,2.485,0,0,0,1.961,1.208a2.153,2.153,0,0,0-.741.035" transform="translate(31.953 15.277)" fill="#420280"/>
        <path id="Trazado_375" data-name="Trazado 375" d="M7.843,4.4A10.056,10.056,0,0,1,1.693,2.373,9.884,9.884,0,0,1,0,.761L.917,0a8.693,8.693,0,0,0,1.49,1.418A8.885,8.885,0,0,0,7.843,3.206a8.885,8.885,0,0,0,5.436-1.788A8.693,8.693,0,0,0,14.768,0l.917.761a9.884,9.884,0,0,1-1.693,1.613A10.056,10.056,0,0,1,7.843,4.4" transform="translate(20.105 38.415)" fill="#420280"/>
      </g>
    </g>
    <g id="Grupo_327" data-name="Grupo 327" transform="translate(167.613 2226.524)">
      <path id="Trazado_341" data-name="Trazado 341" d="M129.692,266.484l43.12,74.18,9.409,0,43.462-74.184Z" transform="translate(-28.201 -57.945)" fill="#f4ca42"/>
      <g id="Grupo_326" data-name="Grupo 326" transform="translate(0)">
        <g id="Grupo_325" data-name="Grupo 325" clip-path="url(#clip-path-5)">
          <path id="Trazado_342" data-name="Trazado 342" d="M129.692,266.484l43.12,74.18,9.409,0,43.462-74.184Z" transform="translate(-28.201 -57.945)" fill="none" stroke="#430080" stroke-linecap="round" stroke-linejoin="round" stroke-width="3"/>
          <path id="Trazado_343" data-name="Trazado 343" d="M225.924,261.672c0,7-21.6,12.666-48.256,12.666s-48.255-5.67-48.255-12.666,21.6-12.666,48.255-12.666,48.256,5.67,48.256,12.666" transform="translate(-28.14 -54.145)" fill="#e5b223"/>
          <path id="Trazado_344" data-name="Trazado 344" d="M225.924,261.672c0,7-21.6,12.666-48.256,12.666s-48.255-5.67-48.255-12.666,21.6-12.666,48.255-12.666S225.924,254.676,225.924,261.672Z" transform="translate(-28.14 -54.145)" fill="none" stroke="#430080" stroke-linecap="round" stroke-linejoin="round" stroke-width="3"/>
          <path id="Trazado_345" data-name="Trazado 345" d="M67.192,152.511l43.052,74.476s25.77,6.681,53.091,6.681c27.909,0,54.51-6.369,54.51-6.369l43.815-74.788Z" transform="translate(-14.61 -33.163)" fill="#347eda"/>
          <path id="Trazado_346" data-name="Trazado 346" d="M67.192,152.511l43.052,74.476s25.77,6.681,53.091,6.681c27.909,0,54.51-6.369,54.51-6.369l43.815-74.788Z" transform="translate(-14.61 -33.163)" fill="none" stroke="#430080" stroke-linecap="round" stroke-linejoin="round" stroke-width="3"/>
          <path id="Trazado_347" data-name="Trazado 347" d="M261.458,146.682c0,7.667-43.695,13.881-97.6,13.881s-97.6-6.214-97.6-13.881,43.7-13.881,97.6-13.881,97.6,6.214,97.6,13.881" transform="translate(-14.409 -28.877)" fill="#1f6cc1"/>
          <ellipse id="Elipse_29" data-name="Elipse 29" cx="97.596" cy="13.881" rx="97.596" ry="13.881" transform="translate(51.857 103.925)" fill="none" stroke="#430080" stroke-linecap="round" stroke-linejoin="round" stroke-width="3"/>
          <path id="Trazado_348" data-name="Trazado 348" d="M247.538,108.655l51.5-87.914H2.25l50.821,87.914a634.523,634.523,0,0,0,93.055,7.048c50.684,0,101.412-7.048,101.412-7.048" transform="translate(-0.489 -4.51)" fill="#2ac7a2"/>
          <path id="Trazado_349" data-name="Trazado 349" d="M247.538,108.655l51.5-87.914H2.25l50.821,87.914a634.523,634.523,0,0,0,93.055,7.048C196.81,115.7,247.538,108.655,247.538,108.655Z" transform="translate(-0.489 -4.51)" fill="none" stroke="#430080" stroke-linecap="round" stroke-linejoin="round" stroke-width="3"/>
          <path id="Trazado_350" data-name="Trazado 350" d="M299.541,15.382c0,7.667-66.718,13.881-149.021,13.881S1.5,23.049,1.5,15.382,68.218,1.5,150.52,1.5,299.541,7.715,299.541,15.382" transform="translate(-0.326 -0.326)" fill="#129e79"/>
          <ellipse id="Elipse_30" data-name="Elipse 30" cx="149.02" cy="13.881" rx="149.02" ry="13.881" transform="translate(1.174 1.174)" fill="none" stroke="#430080" stroke-linecap="round" stroke-linejoin="round" stroke-width="3"/>
        </g>
      </g>
      <text id="hiring" transform="translate(132.066 241.827)" fill="#430080" font-size="13" font-family="Ubuntu-Bold, Ubuntu" font-weight="700"><tspan x="0" y="0">hiring</tspan></text>
      <text id="selection" transform="translate(97.206 167.916)" fill="#430080" font-size="23" font-family="Ubuntu-Bold, Ubuntu" font-weight="700"><tspan x="0" y="0">selection</tspan></text>
      <text id="sourcing" transform="translate(60.426 79.203)" fill="#430080" font-size="42" font-family="Ubuntu-Bold, Ubuntu" font-weight="700"><tspan x="0" y="0">sourcing</tspan></text>
    </g>
    <g id="Grupo_337" data-name="Grupo 337" transform="translate(250.929 2204.257) rotate(-16)">
      <g id="Grupo_336" data-name="Grupo 336" transform="translate(0 0)" clip-path="url(#clip-path-6)">
        <path id="Trazado_384" data-name="Trazado 384" d="M53.917,26.958A26.958,26.958,0,1,1,26.958,0,26.958,26.958,0,0,1,53.917,26.958" transform="translate(0.559 0.559)" fill="#fff"/>
        <ellipse id="Elipse_32" data-name="Elipse 32" cx="26.958" cy="26.958" rx="26.958" ry="26.958" transform="translate(0.558 0.559)" fill="none" stroke="#420280" stroke-linecap="round" stroke-linejoin="round" stroke-width="2"/>
        <path id="Trazado_385" data-name="Trazado 385" d="M1.161,7.393,0,7.237A7.936,7.936,0,0,1,1.676,3.351l.084-.083.109-.044a9.47,9.47,0,0,1,1.8-.4C5.63,2.5,8.6,2.013,10.088,0l.941.7C9.256,3.091,6.006,3.628,3.856,3.982a12.517,12.517,0,0,0-1.423.282A7.149,7.149,0,0,0,1.161,7.393" transform="translate(12.708 36.175)" fill="#420280"/>
        <path id="Trazado_386" data-name="Trazado 386" d="M9.869,7.394A7.145,7.145,0,0,0,8.6,4.265a12.518,12.518,0,0,0-1.423-.282C5.023,3.628,1.773,3.092,0,.7L.941,0C2.431,2.014,5.4,2.5,7.364,2.828a9.47,9.47,0,0,1,1.8.4l.109.044.084.083a7.936,7.936,0,0,1,1.676,3.887Z" transform="translate(31.296 36.175)" fill="#420280"/>
        <path id="Trazado_387" data-name="Trazado 387" d="M7.891,13.81C4.08,13.81,0,8.849,0,1.464,0,1.24,0,.644.483.428s.893.137,1.4.59A4.987,4.987,0,0,0,3.5,2.117,4.973,4.973,0,0,1,7.891,0a4.975,4.975,0,0,1,4.386,2.117,4.99,4.99,0,0,0,1.624-1.1c.5-.452.9-.811,1.4-.59s.483.811.483,1.035c0,7.386-4.08,12.347-7.89,12.347M1.178,1.962C1.351,8.28,4.793,12.639,7.891,12.639S14.43,8.28,14.6,1.962a4.884,4.884,0,0,1-2.552,1.4l-.438.053-.171-.407A3.67,3.67,0,0,0,7.891,1.171,3.671,3.671,0,0,0,4.337,3.013l-.175.4L3.73,3.363a4.888,4.888,0,0,1-2.552-1.4" transform="translate(19.627 25.63)" fill="#420280"/>
        <path id="Trazado_388" data-name="Trazado 388" d="M17.217,9.423a1.34,1.34,0,0,1-.259-.03l.013-.119-.609-.132c.031-.142.06-.287.085-.433l.1-.576.68.12c.516,0,.979-.749.979-1.6s-.463-1.6-.99-1.6l-.669.118-.1-.575a10.674,10.674,0,0,0-1-3.025,14.306,14.306,0,0,1-5.44.655H9.373a14.263,14.263,0,0,1-5.44-.655,10.674,10.674,0,0,0-1,3.025l-.1.575-.679-.119c-.517,0-.979.75-.979,1.6s.463,1.6.99,1.6l.669-.119.1.576c.025.146.054.29.085.433l-.583.126.021.119a1.533,1.533,0,0,1-.294.036C.95,9.423,0,8.205,0,6.649A2.6,2.6,0,0,1,1.874,3.9,11.542,11.542,0,0,1,3.182.5L3.474,0l.5.283c1.364.769,3.225.766,5.4.765h.635c2.169,0,4.031,0,5.4-.765l.5-.283L16.2.5A11.543,11.543,0,0,1,17.5,3.9a2.6,2.6,0,0,1,1.874,2.751c0,1.556-.95,2.774-2.161,2.774" transform="translate(17.828 17.409)" fill="#420280"/>
        <path id="Trazado_389" data-name="Trazado 389" d="M16.346,10.718l-1.02-.574a6.489,6.489,0,0,0-.355-5.7c-1.4-2.476-4.964-3.277-6.469-3.277s-5.066.8-6.469,3.277a6.489,6.489,0,0,0-.355,5.7l-1.02.574a7.541,7.541,0,0,1,.356-6.847C2.8.711,7.127,0,8.5,0s5.7.711,7.488,3.871a7.541,7.541,0,0,1,.356,6.847" transform="translate(19.016 11.466)" fill="#420280"/>
        <rect id="Rectángulo_177" data-name="Rectángulo 177" width="1.171" height="1.049" transform="translate(26.931 40.246)" fill="#420280"/>
        <rect id="Rectángulo_178" data-name="Rectángulo 178" width="1.171" height="1.049" transform="translate(26.931 42.441)" fill="#420280"/>
      </g>
    </g>
    <g id="Grupo_339" data-name="Grupo 339" transform="matrix(0.978, 0.208, -0.208, 0.978, 302.437, 2169.741)">
      <g id="Grupo_338" data-name="Grupo 338" clip-path="url(#clip-path-7)">
        <path id="Trazado_390" data-name="Trazado 390" d="M54.767,27.384A27.383,27.383,0,1,1,27.383,0,27.384,27.384,0,0,1,54.767,27.384" transform="translate(0.559 0.558)" fill="#fff"/>
        <path id="Trazado_391" data-name="Trazado 391" d="M54.767,27.384A27.383,27.383,0,1,1,27.383,0,27.384,27.384,0,0,1,54.767,27.384Z" transform="translate(0.559 0.558)" fill="none" stroke="#420280" stroke-linecap="round" stroke-linejoin="round" stroke-width="2"/>
        <path id="Trazado_392" data-name="Trazado 392" d="M9.842,14.457c-3.749,0-6.959-3.128-7.939-7.669A2.642,2.642,0,0,1,0,3.993,2.641,2.641,0,0,1,1.9,1.2,11.133,11.133,0,0,1,2.237,0L3.363.382A10.191,10.191,0,0,0,2.979,1.9l-.1.585-.692-.121c-.525,0-.994.761-.994,1.628S1.66,5.621,2.2,5.621l.68-.121.1.585c.733,4.162,3.62,7.182,6.864,7.182s6.131-3.02,6.864-7.182l.1-.585.69.121c.525,0,.994-.761.994-1.628s-.47-1.628-1.006-1.628l-.679.121L16.689,1.8c-.064-.361-.17-.966-.249-1.25l1.146-.32c.067.241.141.621.2.968a2.645,2.645,0,0,1,1.894,2.793,2.643,2.643,0,0,1-1.9,2.794c-.98,4.541-4.19,7.669-7.939,7.669" transform="translate(18.297 22.055)" fill="#420280"/>
        <path id="Trazado_393" data-name="Trazado 393" d="M1.19,10.46H0c0-2.9,2.726-4.114,5.362-5.292C8.084,3.951,10.655,2.8,10.655,0h1.189c0,3.574-3.186,5-6,6.254C3.348,7.37,1.19,8.335,1.19,10.46" transform="translate(14.281 35.327)" fill="#420280"/>
        <path id="Trazado_394" data-name="Trazado 394" d="M11.844,10.46h-1.19C10.654,8.335,8.5,7.37,6,6.254,3.186,5,0,3.574,0,0H1.19c0,2.8,2.571,3.951,5.292,5.167,2.636,1.178,5.362,2.4,5.362,5.292" transform="translate(30.153 35.327)" fill="#420280"/>
        <path id="Trazado_395" data-name="Trazado 395" d="M16.258,3.7H3.34A2.961,2.961,0,0,1,.617,1.909L0,.469,1.093,0,1.71,1.44A1.772,1.772,0,0,0,3.34,2.514H16.258A1.77,1.77,0,0,0,17.887,1.44L18.5,0,19.6.469l-.618,1.44A2.959,2.959,0,0,1,16.258,3.7" transform="translate(18.34 41.255)" fill="#420280"/>
        <path id="Trazado_396" data-name="Trazado 396" d="M3.149,4.811a3.291,3.291,0,0,1-1.22-.232A2.908,2.908,0,0,1,.176,2.932,3.186,3.186,0,0,1,.7,0L1.63.745A2,2,0,0,0,1.285,2.5a1.816,1.816,0,0,0,1.081.97A2.851,2.851,0,0,0,4.857,3.05l.688.971a4.415,4.415,0,0,1-2.4.79" transform="translate(18.03 32.974)" fill="#420280"/>
        <path id="Trazado_397" data-name="Trazado 397" d="M5.768,11.68a5.441,5.441,0,0,1-1.774-.293A6.319,6.319,0,0,1,.233,7.054,6.4,6.4,0,0,1,1.281,1.442,3.829,3.829,0,0,1,3.08.17,3.633,3.633,0,0,1,4.707.038L4.541,1.216a2.459,2.459,0,0,0-1.1.087,2.7,2.7,0,0,0-1.254.908,5.239,5.239,0,0,0-.807,4.53,5.129,5.129,0,0,0,3,3.52,4.543,4.543,0,0,0,2.7.044L7.4,11.451a6.09,6.09,0,0,1-1.633.228" transform="translate(13.373 22.468)" fill="#420280"/>
        <path id="Trazado_398" data-name="Trazado 398" d="M1.462,5.288A4.921,4.921,0,0,1,0,5.067L.365,3.935c.022.007,2.188.687,2.943-.771a2.011,2.011,0,0,0-.5-2.232L3.549,0a3.2,3.2,0,0,1,.814,3.711,3.074,3.074,0,0,1-2.9,1.576" transform="translate(33.3 32.771)" fill="#420280"/>
        <path id="Trazado_399" data-name="Trazado 399" d="M.488,12.888,0,11.8c1.159-.494,3.276-1.4,4.057-5.474.606-3.164-.36-4.362-.99-4.794a1.774,1.774,0,0,0-1.853-.156L.584.369A2.975,2.975,0,0,1,3.74.554c.869.6,2.218,2.169,1.485,6-.9,4.7-3.589,5.847-4.737,6.336" transform="translate(37.075 22.38)" fill="#420280"/>
        <path id="Trazado_400" data-name="Trazado 400" d="M.131,13.608A7.348,7.348,0,0,1,2.242,6.85,7.54,7.54,0,0,1,8.356,4.783a5.154,5.154,0,0,1,.5-1.186A5.917,5.917,0,0,1,12.33.971a5.1,5.1,0,0,1,2.864.158,2.656,2.656,0,0,0,2.009.036,3.6,3.6,0,0,0,.944-.626A1.466,1.466,0,0,1,19.575.052c.869.266,1.327,1.391,1.4,3.437a7.857,7.857,0,0,1-.2,2.143c.174-.006.358-.007.536,0a3.989,3.989,0,0,1,2,.639,4.874,4.874,0,0,1,2.034,3.6,8.3,8.3,0,0,1-.447,3.275l-1.1-.46A7.246,7.246,0,0,0,24.161,10,3.7,3.7,0,0,0,22.67,7.275a2.81,2.81,0,0,0-1.405-.454,8.639,8.639,0,0,0-1.239.06l-.982.126.35-.926a6.275,6.275,0,0,0,.394-2.549c-.077-2.1-.558-2.341-.562-2.343-.027.017-.19.156-.311.257a4.714,4.714,0,0,1-1.244.812,3.811,3.811,0,0,1-2.8.015,3.932,3.932,0,0,0-2.251-.148A4.74,4.74,0,0,0,9.884,4.188a4.049,4.049,0,0,0-.476,1.333l-.095.547-.554-.058A6.625,6.625,0,0,0,3.077,7.7,6.132,6.132,0,0,0,1.3,13.4Z" transform="translate(15.119 10.097)" fill="#420280"/>
        <path id="Trazado_401" data-name="Trazado 401" d="M2.933,5.617q-.233,0-.475-.021A4.449,4.449,0,0,1,0,4.559l.763-.912a3.263,3.263,0,0,0,1.8.764,2.655,2.655,0,0,0,2.343-.8,2.314,2.314,0,0,0,.446-1.559L5.32,1.578l.457-.132a2.014,2.014,0,0,1,.508-.078A1.725,1.725,0,0,1,7.5,1.906a1.615,1.615,0,0,0,1.428.471c.433-.04.729-.407,1.165-1.006C10.664.587,11.525-.6,13.215.354l.444.251-.18.477a2.33,2.33,0,0,0,.536,2.283,2.3,2.3,0,0,0,2.529.5L16.893,5a3.525,3.525,0,0,1-3.746-.819,3.61,3.61,0,0,1-.927-2.966c-.431-.106-.671.181-1.165.858A2.931,2.931,0,0,1,9.039,3.562a2.777,2.777,0,0,1-2.305-.747c-.09-.077-.159-.132-.215-.172a3.336,3.336,0,0,1-.681,1.7A3.558,3.558,0,0,1,2.933,5.617" transform="translate(19.905 17.615)" fill="#420280"/>
      </g>
    </g>
    <g id="Grupo_335" data-name="Grupo 335" transform="translate(323.739 2202.882) rotate(14)">
      <g id="Grupo_334" data-name="Grupo 334" transform="translate(0 0)" clip-path="url(#clip-path-8)">
        <path id="Trazado_376" data-name="Trazado 376" d="M40.573,20.287A20.287,20.287,0,1,1,20.286,0,20.287,20.287,0,0,1,40.573,20.287" transform="translate(0.559 0.559)" fill="#fff"/>
        <path id="Trazado_377" data-name="Trazado 377" d="M40.573,20.287A20.287,20.287,0,1,1,20.286,0,20.287,20.287,0,0,1,40.573,20.287Z" transform="translate(0.559 0.559)" fill="none" stroke="#420280" stroke-linecap="round" stroke-linejoin="round" stroke-width="2"/>
        <path id="Trazado_378" data-name="Trazado 378" d="M7.291,11.2c-2.777,0-5.155-2.318-5.881-5.683A1.957,1.957,0,0,1,0,3.445a1.958,1.958,0,0,1,1.411-2.07A8.319,8.319,0,0,1,1.7.356l.83.3a7.625,7.625,0,0,0-.326,1.242l-.077.436-.511-.092c-.389,0-.737.564-.737,1.207s.348,1.206.745,1.206l.5-.087.075.431c.544,3.084,2.682,5.321,5.086,5.321s4.542-2.238,5.086-5.321l.075-.431.475.081c.429,0,.773-.561.773-1.2s-.348-1.206-.745-1.206l-.068.014-.435.078-.077-.436A7.413,7.413,0,0,0,11.929.339L12.742,0a8.07,8.07,0,0,1,.43,1.375,1.958,1.958,0,0,1,1.411,2.07,1.957,1.957,0,0,1-1.41,2.07c-.726,3.365-3.1,5.683-5.881,5.683" transform="translate(13.554 14.383)" fill="#420280"/>
        <path id="Trazado_379" data-name="Trazado 379" d="M.882,3.328H0C0,1.586,1.362.668,2.7,0L3.09.787C1.522,1.574.882,2.31.882,3.328" transform="translate(10.579 29.124)" fill="#420280"/>
        <path id="Trazado_380" data-name="Trazado 380" d="M8.775,7.749H7.893c0-1.574-1.6-2.289-3.451-3.116C2.36,3.7,0,2.648,0,0H.882c0,2.076,1.9,2.927,3.921,3.828C6.755,4.7,8.775,5.6,8.775,7.749" transform="translate(22.337 24.703)" fill="#420280"/>
        <path id="Trazado_381" data-name="Trazado 381" d="M6.387,2.744H0V1.862H6.387a1.312,1.312,0,0,0,1.207-.8L8.051,0l.81.348L8.4,1.414a2.194,2.194,0,0,1-2.017,1.33" transform="translate(19.244 29.095)" fill="#420280"/>
        <path id="Trazado_382" data-name="Trazado 382" d="M7.576,26.277a5.108,5.108,0,0,1-4.338-2.258A5.58,5.58,0,0,1,2.5,19c.083-.2.167-.384.245-.551a1.812,1.812,0,0,0,.206-1.58,1.7,1.7,0,0,0-.584-.765l-.142-.13A5.691,5.691,0,0,1,.617,12.752a5.864,5.864,0,0,0-.18-.7A6.635,6.635,0,0,1,.581,7.029a5.294,5.294,0,0,1,.7-1,8.388,8.388,0,0,0,1.059-1.55,6.393,6.393,0,0,0,.5-1.119A3.341,3.341,0,0,1,3.2,2.575,5.76,5.76,0,0,1,7.718.007a7.692,7.692,0,0,1,4.1,1.007,6.862,6.862,0,0,1,3.291.295A6.242,6.242,0,0,1,18.44,4.87a8.432,8.432,0,0,1,.535,5.2,7.566,7.566,0,0,1-.855,6.034A7.9,7.9,0,0,1,12.8,19.453l-.148-.869a7.113,7.113,0,0,0,4.733-2.959,6.743,6.743,0,0,0,.712-5.438l-.025-.1.022-.1a7.576,7.576,0,0,0-.455-4.753,5.383,5.383,0,0,0-2.847-3.1,5.935,5.935,0,0,0-2.96-.224l-.169.037-.15-.088A6.829,6.829,0,0,0,7.757.887,4.859,4.859,0,0,0,3.95,3.045a2.429,2.429,0,0,0-.277.6A7.286,7.286,0,0,1,3.116,4.9,9.293,9.293,0,0,1,1.96,6.591a4.445,4.445,0,0,0-.6.846,5.846,5.846,0,0,0-.1,4.31,6.526,6.526,0,0,1,.214.817,4.87,4.87,0,0,0,1.35,2.77l.135.124A2.481,2.481,0,0,1,3.8,16.621a2.659,2.659,0,0,1-.251,2.205c-.072.154-.15.321-.226.51a4.738,4.738,0,0,0,.645,4.184,4.242,4.242,0,0,0,3.478,1.874c1.637-2.606-.23-6.275-.249-6.313l-.124-.239.156-.22A2.707,2.707,0,0,0,7.728,17h.882a3.63,3.63,0,0,1-.52,1.916c.436.951,1.843,4.5-.053,7.178l-.129.182-.223,0H7.576" transform="translate(10.745 7.706)" fill="#420280"/>
        <path id="Trazado_383" data-name="Trazado 383" d="M.018,4.932,0,4.051A8.067,8.067,0,0,0,6.469.733L6.959,0l.293.832a4.505,4.505,0,0,0,4.068,2.9v.882A5.367,5.367,0,0,1,6.738,1.836a9.112,9.112,0,0,1-6.72,3.1" transform="translate(15.145 10.423)" fill="#420280"/>
      </g>
    </g>
  </g>
</svg>
