<svg xmlns="http://www.w3.org/2000/svg" width="320.415" height="320.418" viewBox="0 0 320.415 320.418">
  <g id="Grupo_94" data-name="Grupo 94" opacity="0.442">
    <path id="Trazado_90" data-name="Trazado 90" d="M275.067,0H154.646c-11.766,0-22.323,8.809-22.931,20.575a21.731,21.731,0,0,0,21.7,22.9l67.023.006a1.764,1.764,0,0,1,1.247,3.012l-107.2,107.2c-8.327,8.328-9.549,22.016-1.671,30.771a21.746,21.746,0,0,0,31.551.851L252.437,77.243a1.763,1.763,0,0,1,3.01,1.247l.006,65.794c0,11.767,8.815,22.318,20.566,22.932a21.747,21.747,0,0,0,22.911-21.7V23.862A23.863,23.863,0,0,0,275.067,0" transform="translate(21.485 0.001)" fill="#5b3fc0"/>
    <path id="Trazado_91" data-name="Trazado 91" d="M69.135,177.358,51.419,195.073a21.743,21.743,0,1,0,30.749,30.75l17.715-17.717a21.743,21.743,0,0,0-30.749-30.749" transform="translate(9.002 34.171)" fill="#5b3fc0"/>
    <path id="Trazado_92" data-name="Trazado 92" d="M8.02,235.8l-1.656,1.656a21.743,21.743,0,0,0,30.749,30.75l1.656-1.657A21.743,21.743,0,0,0,8.02,235.8" transform="translate(0 45.849)" fill="#5b3fc0"/>
  </g>
</svg>
