<svg id="Grupo_295" data-name="Grupo 295" xmlns="http://www.w3.org/2000/svg" xmlns:xlink="http://www.w3.org/1999/xlink" width="242.271" height="176.2" viewBox="0 0 242.271 176.2">
  <defs>
    <clipPath id="clip-path">
      <rect id="Rectángulo_129" data-name="Rectángulo 129" width="242.271" height="176.2" fill="#f6f6f6"/>
    </clipPath>
  </defs>
  <g id="Grupo_236" data-name="Grupo 236" clip-path="url(#clip-path)">
    <path id="Trazado_279" data-name="Trazado 279" d="M81.066,176.2q-23.391,0-39.971-18.219a62.3,62.3,0,0,1-12.512-20.529,67.72,67.72,0,0,1-4.62-24.339q0-25.828,16.86-52.336t45.134-45Q109.886.005,123.482,0a12.7,12.7,0,0,1,8.974,3.267,11.259,11.259,0,0,1,3.533,8.7q0,8.161-10.338,13.6Q100.923,38.354,89.5,50.852,78.62,62.535,78.614,67.979q0,5.169,8.158,6.256l3.533.544,4.082.272A44.116,44.116,0,0,1,123.075,91.5q11.006,13.729,11.006,33.313a49.5,49.5,0,0,1-13.588,34.8Q104.986,176.194,81.066,176.2" transform="translate(106.282 0)" fill="#f6f6f6"/>
    <path id="Trazado_280" data-name="Trazado 280" d="M57.1,176.2q-23.391,0-39.971-18.219A62.391,62.391,0,0,1,4.62,137.452,67.721,67.721,0,0,1,0,113.113Q0,87.285,16.86,60.777t45.134-45Q85.931.005,99.525,0a12.7,12.7,0,0,1,8.968,3.267,11.259,11.259,0,0,1,3.533,8.7q0,8.161-10.338,13.6Q76.96,38.354,65.533,50.852,54.657,62.535,54.651,67.979q0,5.169,8.164,6.256l3.533.544,4.076.272A44.1,44.1,0,0,1,99.112,91.5q11.015,13.729,11.006,33.313a49.5,49.5,0,0,1-13.588,34.8Q81.023,176.194,57.1,176.2" transform="translate(0 0)" fill="#f6f6f6"/>
  </g>
</svg>
