<svg xmlns="http://www.w3.org/2000/svg" xmlns:xlink="http://www.w3.org/1999/xlink" width="73.091" height="72.499" viewBox="0 0 73.091 72.499">
  <defs>
    <clipPath id="clip-path">
      <rect id="Rectángulo_288" data-name="Rectángulo 288" width="73.091" height="72.499" fill="none"/>
    </clipPath>
  </defs>
  <g id="Grupo_520" data-name="Grupo 520" transform="translate(0)">
    <g id="Grupo_520-2" data-name="Grupo 520" transform="translate(0 0)" clip-path="url(#clip-path)">
      <path id="Trazado_4658" data-name="Trazado 4658" d="M72.488,37.945A33.85,33.85,0,1,1,38.635,4.1,33.85,33.85,0,0,1,72.488,37.945Z" transform="translate(-0.681 -0.583)" fill="#e6cd60"/>
      <path id="Trazado_4659" data-name="Trazado 4659" d="M38.636,4.094A33.85,33.85,0,1,1,4.785,37.945,33.851,33.851,0,0,1,38.636,4.094" transform="translate(-0.681 -0.582)" fill="#e6cd60"/>
      <path id="Trazado_4660" data-name="Trazado 4660" d="M38.636,4.094A33.85,33.85,0,1,1,4.785,37.945,33.851,33.851,0,0,1,38.636,4.094Z" transform="translate(-0.681 -0.582)" fill="none" stroke="#5b3faf" stroke-linecap="round" stroke-linejoin="round" stroke-width="3"/>
      <path id="Trazado_4661" data-name="Trazado 4661" d="M63.207,39.789A22.728,22.728,0,1,1,40.48,17.061,22.728,22.728,0,0,1,63.207,39.789" transform="translate(-2.525 -2.427)" fill="#fff"/>
      <path id="Trazado_4662" data-name="Trazado 4662" d="M63.207,39.789A22.728,22.728,0,1,1,40.48,17.061,22.728,22.728,0,0,1,63.207,39.789" transform="translate(-2.525 -2.427)" fill="#fff"/>
      <path id="Trazado_4663" data-name="Trazado 4663" d="M63.207,39.789A22.728,22.728,0,1,1,40.48,17.061,22.728,22.728,0,0,1,63.207,39.789Z" transform="translate(-2.525 -2.427)" fill="none" stroke="#5b3faf" stroke-linecap="round" stroke-linejoin="round" stroke-width="3"/>
      <path id="Trazado_4664" data-name="Trazado 4664" d="M53.453,41.727A11.035,11.035,0,1,1,42.418,30.693,11.035,11.035,0,0,1,53.453,41.727Z" transform="translate(-4.463 -4.365)" fill="#e6cd60"/>
      <path id="Trazado_4665" data-name="Trazado 4665" d="M53.453,41.727A11.035,11.035,0,1,1,42.418,30.693,11.035,11.035,0,0,1,53.453,41.727Z" transform="translate(-4.463 -4.365)" fill="#e6cd60"/>
      <path id="Trazado_4666" data-name="Trazado 4666" d="M53.453,41.727A11.035,11.035,0,1,1,42.418,30.693,11.035,11.035,0,0,1,53.453,41.727Z" transform="translate(-4.463 -4.365)" fill="none" stroke="#5b3faf" stroke-linecap="round" stroke-linejoin="round" stroke-width="3"/>
      <path id="Trazado_4667" data-name="Trazado 4667" d="M13.54,2.592l-2.793,8.155L2.591,13.54a1.616,1.616,0,0,0-.618,2.669l8.119,8.117a6.665,6.665,0,0,0,5.748,1.87l8.949-1.409L26.2,15.839a6.659,6.659,0,0,0-1.872-5.746L16.209,1.974a1.615,1.615,0,0,0-2.669.618" transform="translate(-0.213 -0.213)" fill="#8b7bd0"/>
      <path id="Trazado_4668" data-name="Trazado 4668" d="M13.54,2.592l-2.793,8.155L2.591,13.54a1.616,1.616,0,0,0-.618,2.669l8.119,8.117a6.665,6.665,0,0,0,5.748,1.87l8.949-1.409L26.2,15.839a6.659,6.659,0,0,0-1.872-5.746L16.209,1.974a1.615,1.615,0,0,0-2.669.618" transform="translate(-0.213 -0.213)" fill="none" stroke="#5b3faf" stroke-linecap="round" stroke-linejoin="round" stroke-width="3"/>
      <path id="Trazado_4669" data-name="Trazado 4669" d="M13.54,2.592l-2.793,8.155L2.591,13.54a1.616,1.616,0,0,0-.618,2.669l8.119,8.117a6.665,6.665,0,0,0,5.748,1.87l8.949-1.409L26.2,15.839a6.659,6.659,0,0,0-1.872-5.746L16.209,1.974a1.615,1.615,0,0,0-2.669.618Z" transform="translate(-0.213 -0.213)" fill="none" stroke="#5b3faf" stroke-linecap="round" stroke-linejoin="round" stroke-width="3"/>
      <line id="Línea_19" data-name="Línea 19" x1="27.342" y1="27.342" transform="translate(10.613 10.604)" fill="#fff"/>
      <line id="Línea_20" data-name="Línea 20" x1="27.342" y1="27.342" transform="translate(10.613 10.604)" fill="none" stroke="#5b3faf" stroke-linecap="round" stroke-linejoin="round" stroke-width="5"/>
    </g>
  </g>
</svg>
