<svg xmlns="http://www.w3.org/2000/svg" xmlns:xlink="http://www.w3.org/1999/xlink" width="98.181" height="80.781" viewBox="0 0 98.181 80.781">
  <defs>
    <clipPath id="clip-path">
      <rect id="Rectángulo_287" data-name="Rectángulo 287" width="98.181" height="80.781" fill="none"/>
    </clipPath>
  </defs>
  <g id="Grupo_521" data-name="Grupo 521" transform="translate(0)">
    <g id="Grupo_518" data-name="Grupo 518" transform="translate(0 0)" clip-path="url(#clip-path)">
      <path id="Trazado_4648" data-name="Trazado 4648" d="M95.29,39.839l-7.426-1.2a24.854,24.854,0,0,0-3.457-5.306l8.948-13.6a13.421,13.421,0,0,0-18.59,3.836h0l-1.083,1.647a39.2,39.2,0,0,0-5.3-2.108l-25.845-.124c-12.9,3.908-22.03,13.583-22.03,24.9,0,8.26,4.87,15.644,12.518,20.552a3.57,3.57,0,0,0-.183.462L30.8,75.615a3.6,3.6,0,0,0,3.451,4.655h5.574a3.607,3.607,0,0,0,3.451-2.557L44.6,73.341a44.613,44.613,0,0,0,19.714.352l1.222,4.02a3.605,3.605,0,0,0,3.451,2.557h5.574a3.608,3.608,0,0,0,3.452-4.655L76.088,69.28A28.361,28.361,0,0,0,88.246,56.306L95.54,54.54A3.334,3.334,0,0,0,98.1,51.3V43.13A3.335,3.335,0,0,0,95.29,39.839Z" transform="translate(-2.917 -2.492)" fill="none" stroke="#5b3faf" stroke-linecap="round" stroke-linejoin="round" stroke-width="7"/>
      <path id="Trazado_4649" data-name="Trazado 4649" d="M1.909,53.976c-.329,0-.531-.012-.568-.015a1.5,1.5,0,0,1,.19-2.994,14.123,14.123,0,0,0,5.147-.84A5.921,5.921,0,0,1,3.7,46.171a4.233,4.233,0,0,1,2.769-4.909c2.114-.644,4.267.553,5.36,2.976a6.962,6.962,0,0,1,.46,4.428,22.871,22.871,0,0,0,3.8.027,1.5,1.5,0,0,1,.311,2.987c-.035,0-.069.006-.1.007a23.761,23.761,0,0,1-5.77-.218,5.272,5.272,0,0,1-.512.359,16.121,16.121,0,0,1-8.1,2.147M7.6,44.095a.905.905,0,0,0-.262.039,1.272,1.272,0,0,0-.687,1.493c.171.936,1.055,1.827,2.686,2.418a3.886,3.886,0,0,0-.25-2.572C9.015,45.324,8.435,44.1,7.6,44.1" transform="translate(0 -5.844)" fill="#5b3faf"/>
      <path id="Trazado_4650" data-name="Trazado 4650" d="M74.537,81.618H68.963a5.078,5.078,0,0,1-4.887-3.623l-.829-2.726a46.262,46.262,0,0,1-17.642-.3L44.686,78A5.08,5.08,0,0,1,39.8,81.619H34.223a5.109,5.109,0,0,1-4.888-6.594L31.2,68.887c-7.785-5.363-12.223-13.018-12.223-21.16,0-11.746,9.066-22.082,23.1-26.334a1.458,1.458,0,0,1,.443-.063l25.845.122a1.463,1.463,0,0,1,.443.069,40.228,40.228,0,0,1,4.306,1.633l.374-.564a14.94,14.94,0,0,1,20.67-4.267,1.5,1.5,0,0,1,.429,2.08L86.237,33.087a26.33,26.33,0,0,1,2.6,4.042L95.5,38.2a4.816,4.816,0,0,1,4.064,4.774v8.165a4.823,4.823,0,0,1-3.7,4.7l-6.581,1.593A29.54,29.54,0,0,1,77.84,69.811l1.585,5.214a5.109,5.109,0,0,1-4.888,6.594" transform="translate(-2.699 -2.257)" fill="#fff"/>
      <path id="Trazado_4651" data-name="Trazado 4651" d="M74.537,81.618H68.963a5.078,5.078,0,0,1-4.887-3.623l-.829-2.726a46.262,46.262,0,0,1-17.642-.3L44.686,78A5.08,5.08,0,0,1,39.8,81.619H34.223a5.109,5.109,0,0,1-4.888-6.594L31.2,68.887c-7.785-5.363-12.223-13.018-12.223-21.16,0-11.746,9.066-22.082,23.1-26.334a1.458,1.458,0,0,1,.443-.063l25.845.122a1.463,1.463,0,0,1,.443.069,40.228,40.228,0,0,1,4.306,1.633l.374-.564a14.94,14.94,0,0,1,20.67-4.267,1.5,1.5,0,0,1,.429,2.08L86.237,33.087a26.33,26.33,0,0,1,2.6,4.042L95.5,38.2a4.816,4.816,0,0,1,4.064,4.774v8.165a4.823,4.823,0,0,1-3.7,4.7l-6.581,1.593A29.54,29.54,0,0,1,77.84,69.811l1.585,5.214a5.109,5.109,0,0,1-4.888,6.594" transform="translate(-2.699 -2.257)" fill="none" stroke="#5b3faf" stroke-linecap="round" stroke-linejoin="round" stroke-width="3"/>
      <path id="Trazado_4652" data-name="Trazado 4652" d="M58.432,86.633a44.959,44.959,0,0,1-14.61-2.381A1.5,1.5,0,1,1,44.75,81.4l.045.015A41.953,41.953,0,0,0,58.432,83.63a42.428,42.428,0,0,0,11.907-1.675,1.5,1.5,0,0,1,.843,2.882,45.447,45.447,0,0,1-12.751,1.8" transform="translate(-6.085 -11.566)" fill="#5b3faf"/>
      <path id="Trazado_4653" data-name="Trazado 4653" d="M70.875,34.2H42.464a1.2,1.2,0,0,1,0-2.4H70.875a1.2,1.2,0,0,1,0,2.4" transform="translate(-5.869 -4.523)" fill="#5b3faf"/>
      <path id="Trazado_4654" data-name="Trazado 4654" d="M71.594,15.678A14.178,14.178,0,0,1,63.3,28.58l-11.745.009a14.177,14.177,0,1,1,20.039-12.91" transform="translate(-6.149 -0.213)" fill="#e6cd60"/>
      <path id="Trazado_4655" data-name="Trazado 4655" d="M71.594,15.678A14.178,14.178,0,0,1,63.3,28.58l-11.745.009a14.177,14.177,0,1,1,20.039-12.91" transform="translate(-6.149 -0.213)" fill="none" stroke="#5b3faf" stroke-linecap="round" stroke-linejoin="round" stroke-width="3"/>
      <path id="Trazado_4656" data-name="Trazado 4656" d="M61.2,16.368a1.822,1.822,0,0,0-.17-.094l-3.09-1.449a1.647,1.647,0,1,1,2.422-1.212,1.456,1.456,0,1,0,2.87.486c0-.023.008-.047.01-.071a4.533,4.533,0,0,0-3.1-4.967V8.592a1.455,1.455,0,1,0-2.91,0v.492a4.545,4.545,0,0,0-.612,8.338l3.064,1.442A1.65,1.65,0,1,1,57.074,20.2a1.456,1.456,0,0,0-2.911,0,4.554,4.554,0,0,0,3.069,4.291v.455a1.456,1.456,0,1,0,2.911,0v-.433a4.544,4.544,0,0,0,1.048-8.145" transform="translate(-7.703 -1.015)" fill="#5b3faf"/>
      <path id="Trazado_4657" data-name="Trazado 4657" d="M86.872,46.276a1.2,1.2,0,0,1-1.2-1.2,2.35,2.35,0,0,0-4.7,0,1.2,1.2,0,0,1-2.4,0,4.753,4.753,0,1,1,9.507,0,1.2,1.2,0,0,1-1.2,1.2" transform="translate(-11.174 -5.735)" fill="#5b3faf"/>
    </g>
  </g>
</svg>
