<svg xmlns="http://www.w3.org/2000/svg" xmlns:xlink="http://www.w3.org/1999/xlink" width="72.536" height="73.776" viewBox="0 0 72.536 73.776">
  <defs>
    <clipPath id="clip-path">
      <rect id="Rectángulo_125" data-name="Rectángulo 125" width="72.536" height="73.776" transform="translate(-3 -3)" fill="none"/>
    </clipPath>
  </defs>
  <g id="Grupo_225" data-name="Grupo 225" transform="translate(3 3)">
    <g id="Grupo_224" data-name="Grupo 224" clip-path="url(#clip-path)">
      <path id="Trazado_264" data-name="Trazado 264" d="M30.97,73.813A28.471,28.471,0,1,0,2.5,45.343a28.47,28.47,0,0,0,28.47,28.47" transform="translate(-1.102 -7.436)" fill="#2acda8"/>
      <path id="Trazado_265" data-name="Trazado 265" d="M30.97,73.813A28.471,28.471,0,1,0,2.5,45.343,28.47,28.47,0,0,0,30.97,73.813Z" transform="translate(-1.102 -7.436)" fill="none" stroke="#5b3fbd" stroke-linecap="round" stroke-linejoin="round" stroke-width="3"/>
      <path id="Trazado_266" data-name="Trazado 266" d="M2.419,48.987l.85-.485H4.483a.694.694,0,0,1,.971.243c.364.546.06.789.789,1.336s1.214.789,1.153,1.7.546,1.76.911,1.7-.06-.243.365-.061,1.456.607,1.517.061-.789-.971-.607-1.336a3.032,3.032,0,0,0,.364-1.032c0-.3-.061-.607.3-.789s.546-.061,1.032-.425.911-.243,1.092-.789a1.11,1.11,0,0,1,.789-.668,2.526,2.526,0,0,1,.971,0,2.163,2.163,0,0,0,1.153.3c.364-.061.425-.3.607-.364a1.928,1.928,0,0,1,.607,0,.845.845,0,0,0,.485.425c.3.061-.182.121.243.061s.911-.121.911-.121-.06-.061.486,0,.121-.243.546.06c.425.365.121-.243,0-.425s.243-.486.243-.486-.911.121-.971-.425.061-.546.243-.485c.182.121.668,0,.668,0s.243.243,1.153,0a2.134,2.134,0,0,1,1.578,0c.243.121.668-.06,1.032,0s.728.3.728.546c0,.182.061.364.425.121a2.124,2.124,0,0,0,.668-.668l.668.546s.728.182.728.607c-.06.364.485-.122.668.425s.364.668.182.911c-.182.182-.121.911-.121.911s.06.729.485.85.668.243.668.546a1.029,1.029,0,0,0,.364.607c.182.061.243.061.425.121a.455.455,0,0,1,.364.425,2.886,2.886,0,0,0,.182.425c.06.121.182.121.364.06s.364-.364.425-.424a1.589,1.589,0,0,0,0-.789c-.06-.425-.182-.486.061-.729.182-.243.061-.364,0-.546s.243,0,.121-.3c-.182-.3-.121-.3-.364-.425s-.182.243-.243-.121.06-.365-.182-.546.061-.243.121-.729-1.032-.85-1.214-1.4a2.43,2.43,0,0,0-.425-.971c-.243-.3-.182-.3-.121-.728s-.061-1.761.485-2.185.425-.546.971-.789c.607-.243.789-.425.789-.911a1.631,1.631,0,0,1,.182-.789c.061-.182-.06-.182.3-.243s.485-.243.668-.728a1.674,1.674,0,0,1,.728-.729c.243-.182.364-.425.182-.667s.546-.668.607-.911-.06-.243-.182-.365c-.121-.06-.182.121-.425,0s.06-.3.182-.485a1.156,1.156,0,0,0,.061-.607,1.026,1.026,0,0,0-.243-.425c-.243-.182-.485-.182-.425-.546s.182-.668.121-.789a1.022,1.022,0,0,0-.243-.425,1.381,1.381,0,0,1-.243-.911c.06-.243.485.182.364.546s.121.364.364.607a.846.846,0,0,1,.3.607c.061.243.485.243.364-.182-.06-.425.061-.911,0-1.032s-.06-.546-.121-.607,0-.122-.182-.243a.393.393,0,0,1-.182-.3s.425-.121.546,0-.182-.121,0-.365a1.281,1.281,0,0,0,.3-.667c0-.182-.06-.182-.243-.486a3.4,3.4,0,0,0-.3-.485c-.182-.243-.061,0-.182-.182-.182-.182-.121-.182-.121-.485-.061-.3.243-.182-.061-.3a3.86,3.86,0,0,1-.546-.364.472.472,0,0,1,.182-.243.437.437,0,0,1,.607.243l.182.546c.061.182.121.668.3.789s.364.121.485.243a2.756,2.756,0,0,1,.425.425,3.563,3.563,0,0,1,.182.425s.365-.061.243-.486-.486-.425-.425-.728a.566.566,0,0,1,.243-.425l.607-.607a2.55,2.55,0,0,1,.729-.425,7.091,7.091,0,0,0,.668-.3c.243-.121.789-.243.728-.607a4.467,4.467,0,0,0-.364-.668s-.121-.061-.121-.3.121.061.061-.243c-.122-.3-.122-.182-.122-.425.061-.243.365-.668.3-.971s-.3-.243.243-.425.486-.243.607-.546a.878.878,0,0,1,.485-.546c.243-.121.729-.243.789-.607.121-.364.182-.729,0-.85a1.16,1.16,0,0,1-.546-.546,6.832,6.832,0,0,1-.485-1.336,1.422,1.422,0,0,0-.425-.729.423.423,0,0,0-.3,0,.662.662,0,0,1-.485,0c-.121-.121-.485-.243-.546,0a1.19,1.19,0,0,0-.06.425c0,.182-.061.3-.061.485s.061.243,0,.425a5.925,5.925,0,0,0-.182.668s.182.061.121.364a1.625,1.625,0,0,1-.243.486,2.484,2.484,0,0,1-.182.243c-.121.06-.121.121-.182.3s.121.061-.06.365a.777.777,0,0,1-.425.364l-.971.243c-.243.06-.668.121-.668.121a1.105,1.105,0,0,1-.789.425c-.182,0,0,.121-.182,0a.706.706,0,0,0-.607-.121,1.617,1.617,0,0,0-.607.364c-.243.243-.789.911-.789.911s-.061-.06-.061.364.182.425,0,.607-.425.364-.485.425-.06.122-.364.182c-.243.061,0-.243-.243.061s0,.3-.243.364a1.367,1.367,0,0,1-.607-.061s-.243.061-.3.182a5.138,5.138,0,0,0-.121.607,6.03,6.03,0,0,1-.425.546c-.121.121-.121.061-.243.425s-.365.425-.546.607-.364.182-.607.3a4.633,4.633,0,0,0-.789.607c-.3.243-.425.486-.546.365s-.182-.121-.425-.365l-.243-.243c-.182-.182-.425.182-.182-.182s.364-.365.425-.546a4.218,4.218,0,0,0,.182-.486c.121-.182.182.122.182-.425s.121-.789-.061-1.032l-.364-.485a2.5,2.5,0,0,0-.607.121c-.121.061,0,.243-.485.425s-.729-.061-.243-.364.789-.668.668-1.032a2.1,2.1,0,0,0-.425-.729c-.182-.243.06-.243-.122-.485s0-.243-.364-.3-.425.121-.546-.182-.607-.607-.728-.546-.182-.121-.364.243a1.428,1.428,0,0,0-.061.85c.061.182.486.182.3.486s-.3.546-.3.546a1.018,1.018,0,0,0-.243.485,1.542,1.542,0,0,0,.121.789c.061.243.182.243.121.425s-.06.182-.243.789-.061.607,0,.85-.182,1.639-.607,1.214-.789-.364-.607-.971.182-.364.182-.607a1.142,1.142,0,0,0-.3-.668c-.121-.121-.3-.061-.182-.425s-.243-1.032-.122-1.153-.485-.364-.182-.728a2.321,2.321,0,0,1,.668-.668c.425-.3.728-.668.728-.85-.06-.182-.06-.243-.121-.425s-.3.182-.485-.243-.546-.668-.729-.546-.3.243-.425.182c-.121-.121-.365-.182-.061-.425s.425-.425.364-.485c-.06-.121-.789.243-1.4,1.032s-.85.607-.971.425c-.121-.121-.485-.607-.485-.607s-.061.243-.425.243-.182-.425.061-.546a2.17,2.17,0,0,0,.607-.425c.182-.182.061-.121.364-.364a.969.969,0,0,1,.546-.243s-.121-.546-.182-.486a20.444,20.444,0,0,0-9.046,7.528c-3.946,5.706-6.071,11.9-5.463,19.061" transform="translate(-1.021 -8.713)" fill="#5b3fb9"/>
      <path id="Trazado_267" data-name="Trazado 267" d="M81.024,79.339a6.848,6.848,0,0,0-1.7,0c-.789.121-1.093.546-1.882.364s-1.153-.789-1.821-1.092a15.911,15.911,0,0,0-3.035-.243H70.765s0-.06-.607-.364a1.8,1.8,0,0,0-1.214,0,2.574,2.574,0,0,1-.789.425,15.43,15.43,0,0,1-3.7.971c-1.153,0-1.093-.182-1.882.364s-1.517.85-1.881,1.092c-.425.243-.911.668-1.153.607s-.243-.121-.546,0c-.243.121.06-.121-.243.121-.365.243-.182.364-1.154.668-.971.364-.911.546-1.214.425-.365-.121-.425,0-.607.06-.182,0-1.336.546-1.093.789.243.182.3-.06.546.546.182.607.546,1.032,1.275.911s.911-.182,1.092,0,.607.3.546.911-.06.789-.364,1.093c-.243.243-.728.485-.668,1.032s-.425,1.275-.182,1.518a2.1,2.1,0,0,0,.971.667c.485.122.243-.364.728,0a10.417,10.417,0,0,0,2.186,1.032c.668.182,1.153.546,1.153.911s-.728.485-.182,1.092a1.516,1.516,0,0,1,.486,1.093.911.911,0,0,1,0,.485c-.061.365-.911,1.214-.911,1.214s.121.061-.425,0-.668.121-1.093,0-.607-.789-.789,0c-.182.85.121.3-.182.85-.365.546,0,.546-.668.728s-.546-.121-1.153.243c-.607.425-1.639.425-1.639,1.093a3.6,3.6,0,0,0,.182,1.153s-1.032.364-.061,1.032c4.553-1.214,10.016-1.032,20.093-9.894,5.706-8.559,5.4-11.9,5.4-11.9" transform="translate(-24.082 -34.329)" fill="#5b3fb9"/>
      <path id="Trazado_269" data-name="Trazado 269" d="M71.321,41.834,60.887,31.4a16.929,16.929,0,1,1,23.94,0L74.393,41.834a2.172,2.172,0,0,1-3.072,0" transform="translate(-24.648 -1.102)" fill="#f2b55f"/>
      <path id="Trazado_270" data-name="Trazado 270" d="M71.321,41.834,60.887,31.4a16.929,16.929,0,1,1,23.94,0L74.393,41.834A2.172,2.172,0,0,1,71.321,41.834Z" transform="translate(-24.648 -1.102)" fill="none" stroke="#5b3fbd" stroke-linecap="round" stroke-linejoin="round" stroke-width="3"/>
      <path id="Trazado_271" data-name="Trazado 271" d="M72.5,32.027h0a9.162,9.162,0,1,1,12.958,0,9.162,9.162,0,0,1-12.958,0" transform="translate(-30.768 -7.221)" fill="#fff"/>
      <path id="Trazado_272" data-name="Trazado 272" d="M72.5,32.027h0a9.162,9.162,0,1,1,12.958,0A9.162,9.162,0,0,1,72.5,32.027Z" transform="translate(-30.768 -7.221)" fill="none" stroke="#5b3fbd" stroke-linecap="round" stroke-linejoin="round" stroke-width="3"/>
    </g>
  </g>
</svg>
