<svg xmlns="http://www.w3.org/2000/svg" xmlns:xlink="http://www.w3.org/1999/xlink" width="60.518" height="57.849" viewBox="0 0 60.518 57.849">
  <defs>
    <clipPath id="clip-path">
      <rect id="Rectángulo_126" data-name="Rectángulo 126" width="60.518" height="57.849" fill="none"/>
    </clipPath>
  </defs>
  <g id="Grupo_227" data-name="Grupo 227" transform="translate(3 3)">
    <g id="Grupo_226" data-name="Grupo 226" transform="translate(-3 -3)" clip-path="url(#clip-path)">
      <path id="Trazado_273" data-name="Trazado 273" d="M35.622,49.412,46.635,38.4a4.762,4.762,0,0,1,6.973,6.477L39.683,61.023a25.628,25.628,0,0,1-19.408,8.891H10.129a8.366,8.366,0,0,1-8.367-8.366v-10.1a8.367,8.367,0,0,1,8.367-8.367H30.393a5.363,5.363,0,0,1,5.364,5.364Z" transform="translate(1.628 -16.029)" fill="#f4db60"/>
      <path id="Trazado_274" data-name="Trazado 274" d="M28.967,49.591H44.391a5.364,5.364,0,0,1,.952,10.642L32.62,62.528" transform="translate(-12.002 -22.335)" fill="none" stroke="#5b3fbd" stroke-linecap="round" stroke-linejoin="round" stroke-width="3"/>
      <path id="Trazado_275" data-name="Trazado 275" d="M36.36,49.827,47.373,38.814a4.762,4.762,0,0,1,6.973,6.477L40.421,61.438a25.628,25.628,0,0,1-19.408,8.891H10.867A8.366,8.366,0,0,1,2.5,61.962V51.86a8.367,8.367,0,0,1,8.367-8.367H30.319" transform="translate(1.258 -16.237)" fill="none" stroke="#5b3fbd" stroke-linecap="round" stroke-linejoin="round" stroke-width="3"/>
      <path id="Trazado_276" data-name="Trazado 276" d="M42.808,17.757a3.34,3.34,0,0,1-2.1-.733c-2.878-2.31-6.31-5.781-6.31-9.144A5.228,5.228,0,0,1,39.445,2.5a4.85,4.85,0,0,1,3.363,1.374A4.85,4.85,0,0,1,46.17,2.5a5.228,5.228,0,0,1,5.044,5.38c0,3.363-3.432,6.833-6.312,9.145a3.338,3.338,0,0,1-2.095.732" transform="translate(-14.723 1.258)" fill="#997bde"/>
      <path id="Trazado_277" data-name="Trazado 277" d="M42.808,17.757a3.34,3.34,0,0,1-2.1-.733c-2.878-2.31-6.31-5.781-6.31-9.144A5.228,5.228,0,0,1,39.445,2.5a4.85,4.85,0,0,1,3.363,1.374A4.85,4.85,0,0,1,46.17,2.5a5.228,5.228,0,0,1,5.044,5.38c0,3.363-3.432,6.833-6.312,9.145A3.338,3.338,0,0,1,42.808,17.757Z" transform="translate(-14.723 1.258)" fill="none" stroke="#5b3fbd" stroke-linecap="round" stroke-linejoin="round" stroke-width="3"/>
    </g>
  </g>
</svg>
