<svg id="Grupo_950" data-name="Grupo 950" xmlns="http://www.w3.org/2000/svg" xmlns:xlink="http://www.w3.org/1999/xlink" width="126.344" height="124.413" viewBox="0 0 126.344 124.413">
  <defs>
    <clipPath id="clip-path">
      <rect id="Rectángulo_466" data-name="Rectángulo 466" width="126.344" height="124.413" fill="none"/>
    </clipPath>
  </defs>
  <rect id="Rectángulo_460" data-name="Rectángulo 460" width="49.364" height="67.459" transform="translate(28.134 55.538)" fill="#d9d9d9"/>
  <g id="Grupo_941" data-name="Grupo 941">
    <g id="Grupo_940" data-name="Grupo 940" clip-path="url(#clip-path)">
      <rect id="Rectángulo_461" data-name="Rectángulo 461" width="49.364" height="67.459" transform="translate(28.134 55.538)" fill="none" stroke="#5b3fab" stroke-linecap="round" stroke-linejoin="round" stroke-width="3"/>
      <path id="Trazado_5000" data-name="Trazado 5000" d="M42.29,104.058a1.783,1.783,0,0,0-3.566,0v3.4a1.783,1.783,0,1,0,3.566,0Z" transform="translate(-2.145 -5.665)" fill="#5b3fa7"/>
      <path id="Trazado_5001" data-name="Trazado 5001" d="M50.294,104.058a1.783,1.783,0,0,0-3.566,0v3.4a1.783,1.783,0,1,0,3.566,0Z" transform="translate(-2.588 -5.665)" fill="#5b3fa7"/>
      <path id="Trazado_5002" data-name="Trazado 5002" d="M58.3,104.058a1.783,1.783,0,0,0-3.566,0v3.4a1.783,1.783,0,1,0,3.566,0Z" transform="translate(-3.031 -5.665)" fill="#5b3fa7"/>
      <path id="Trazado_5003" data-name="Trazado 5003" d="M66.3,104.058a1.783,1.783,0,0,0-3.566,0v3.4a1.783,1.783,0,1,0,3.566,0Z" transform="translate(-3.475 -5.665)" fill="#5b3fa7"/>
      <path id="Trazado_5004" data-name="Trazado 5004" d="M74.3,104.058a1.783,1.783,0,0,0-3.566,0v3.4a1.783,1.783,0,1,0,3.566,0Z" transform="translate(-3.918 -5.665)" fill="#5b3fa7"/>
      <path id="Trazado_5005" data-name="Trazado 5005" d="M42.29,92.742a1.783,1.783,0,0,0-3.566,0v3.4a1.783,1.783,0,0,0,3.566,0Z" transform="translate(-2.145 -5.038)" fill="#5b3fa7"/>
      <path id="Trazado_5006" data-name="Trazado 5006" d="M50.294,92.742a1.783,1.783,0,0,0-3.566,0v3.4a1.783,1.783,0,0,0,3.566,0Z" transform="translate(-2.588 -5.038)" fill="#5b3fa7"/>
      <path id="Trazado_5007" data-name="Trazado 5007" d="M58.3,92.742a1.783,1.783,0,0,0-3.566,0v3.4a1.783,1.783,0,0,0,3.566,0Z" transform="translate(-3.031 -5.038)" fill="#5b3fa7"/>
      <path id="Trazado_5008" data-name="Trazado 5008" d="M66.3,92.742a1.783,1.783,0,0,0-3.566,0v3.4a1.783,1.783,0,0,0,3.566,0Z" transform="translate(-3.475 -5.038)" fill="#5b3fa7"/>
      <path id="Trazado_5009" data-name="Trazado 5009" d="M74.3,92.742a1.783,1.783,0,0,0-3.566,0v3.4a1.783,1.783,0,0,0,3.566,0Z" transform="translate(-3.918 -5.038)" fill="#5b3fa7"/>
      <path id="Trazado_5010" data-name="Trazado 5010" d="M42.29,81.426a1.783,1.783,0,0,0-3.566,0v3.4a1.783,1.783,0,1,0,3.566,0Z" transform="translate(-2.145 -4.411)" fill="#5b3fa7"/>
      <path id="Trazado_5011" data-name="Trazado 5011" d="M50.294,81.426a1.783,1.783,0,0,0-3.566,0v3.4a1.783,1.783,0,1,0,3.566,0Z" transform="translate(-2.588 -4.411)" fill="#5b3fa7"/>
      <path id="Trazado_5012" data-name="Trazado 5012" d="M58.3,81.426a1.783,1.783,0,0,0-3.566,0v3.4a1.783,1.783,0,1,0,3.566,0Z" transform="translate(-3.031 -4.411)" fill="#5b3fa7"/>
      <path id="Trazado_5013" data-name="Trazado 5013" d="M66.3,81.426a1.783,1.783,0,0,0-3.566,0v3.4a1.783,1.783,0,1,0,3.566,0Z" transform="translate(-3.475 -4.411)" fill="#5b3fa7"/>
      <path id="Trazado_5014" data-name="Trazado 5014" d="M74.3,81.426a1.783,1.783,0,0,0-3.566,0v3.4a1.783,1.783,0,1,0,3.566,0Z" transform="translate(-3.918 -4.411)" fill="#5b3fa7"/>
      <path id="Trazado_5015" data-name="Trazado 5015" d="M42.29,70.109a1.783,1.783,0,0,0-3.566,0v3.4a1.783,1.783,0,1,0,3.566,0Z" transform="translate(-2.145 -3.784)" fill="#5b3fa7"/>
      <path id="Trazado_5016" data-name="Trazado 5016" d="M50.294,70.109a1.783,1.783,0,0,0-3.566,0v3.4a1.783,1.783,0,1,0,3.566,0Z" transform="translate(-2.588 -3.784)" fill="#5b3fa7"/>
      <path id="Trazado_5017" data-name="Trazado 5017" d="M58.3,70.109a1.783,1.783,0,0,0-3.566,0v3.4a1.783,1.783,0,1,0,3.566,0Z" transform="translate(-3.031 -3.784)" fill="#5b3fa7"/>
      <path id="Trazado_5018" data-name="Trazado 5018" d="M66.3,70.109a1.783,1.783,0,0,0-3.566,0v3.4a1.783,1.783,0,1,0,3.566,0Z" transform="translate(-3.475 -3.784)" fill="#5b3fa7"/>
      <path id="Trazado_5019" data-name="Trazado 5019" d="M74.3,70.109a1.783,1.783,0,0,0-3.566,0v3.4a1.783,1.783,0,1,0,3.566,0Z" transform="translate(-3.918 -3.784)" fill="#5b3fa7"/>
      <path id="Trazado_5020" data-name="Trazado 5020" d="M85.716,28.569H125.8a3.673,3.673,0,0,1,3.674,3.674v92.336H82.042V32.243a3.673,3.673,0,0,1,3.674-3.674" transform="translate(-4.544 -1.582)" fill="#d9d9d9"/>
      <path id="Trazado_5021" data-name="Trazado 5021" d="M85.716,28.569H125.8a3.673,3.673,0,0,1,3.674,3.674v92.336H82.042V32.243A3.673,3.673,0,0,1,85.716,28.569Z" transform="translate(-4.544 -1.582)" fill="none" stroke="#5b3fab" stroke-linecap="round" stroke-linejoin="round" stroke-width="3"/>
      <path id="Trazado_5022" data-name="Trazado 5022" d="M50.963,91.706l-14.5-7.31H23.42l-14.5,7.31A13.491,13.491,0,0,0,1.5,103.753v23.918H58.38V103.753a13.49,13.49,0,0,0-7.417-12.047" transform="translate(-0.083 -4.675)" fill="#fff"/>
      <path id="Trazado_5023" data-name="Trazado 5023" d="M50.963,91.706l-14.5-7.31H23.42l-14.5,7.31A13.491,13.491,0,0,0,1.5,103.753v23.918H58.38V103.753A13.49,13.49,0,0,0,50.963,91.706Z" transform="translate(-0.083 -4.675)" fill="none" stroke="#5b3fab" stroke-linecap="round" stroke-linejoin="round" stroke-width="3"/>
      <rect id="Rectángulo_462" data-name="Rectángulo 462" width="13.042" height="21.186" transform="translate(23.336 65.908)" fill="#fff"/>
      <rect id="Rectángulo_463" data-name="Rectángulo 463" width="13.042" height="21.186" transform="translate(23.336 65.908)" fill="none" stroke="#5b3fab" stroke-linecap="round" stroke-linejoin="round" stroke-width="3"/>
      <path id="Trazado_5024" data-name="Trazado 5024" d="M33.908,98.2H28.783l-1.911-7.647H35.82Z" transform="translate(-1.488 -5.016)" fill="#2abb96"/>
      <path id="Trazado_5025" data-name="Trazado 5025" d="M33.908,98.2H28.783l-1.911-7.647H35.82Z" transform="translate(-1.488 -5.016)" fill="none" stroke="#5b3fab" stroke-linecap="round" stroke-linejoin="round" stroke-width="3"/>
      <path id="Trazado_5026" data-name="Trazado 5026" d="M24.255,84.4l6.521,5.821-4.43,3.79a1.89,1.89,0,0,1-2.4.049l-7.356-5.8Z" transform="translate(-0.919 -4.675)" fill="#fff"/>
      <path id="Trazado_5027" data-name="Trazado 5027" d="M24.255,84.4l6.521,5.821-4.43,3.79a1.89,1.89,0,0,1-2.4.049l-7.356-5.8Z" transform="translate(-0.919 -4.675)" fill="none" stroke="#5b3fab" stroke-linecap="round" stroke-linejoin="round" stroke-width="3"/>
      <path id="Trazado_5028" data-name="Trazado 5028" d="M38.13,84.4l-6.522,5.821,4.431,3.79a1.888,1.888,0,0,0,2.4.049l7.357-5.8Z" transform="translate(-1.751 -4.675)" fill="#fff"/>
      <path id="Trazado_5029" data-name="Trazado 5029" d="M38.13,84.4l-6.522,5.821,4.431,3.79a1.888,1.888,0,0,0,2.4.049l7.357-5.8Z" transform="translate(-1.751 -4.675)" fill="none" stroke="#5b3fab" stroke-linecap="round" stroke-linejoin="round" stroke-width="3"/>
      <path id="Trazado_5030" data-name="Trazado 5030" d="M28.638,98.653h5.125l4.4,29.807H24.239Z" transform="translate(-1.343 -5.464)" fill="#2abb96"/>
      <path id="Trazado_5031" data-name="Trazado 5031" d="M28.638,98.653h5.125l4.4,29.807H24.239Z" transform="translate(-1.343 -5.464)" fill="none" stroke="#5b3fab" stroke-linecap="round" stroke-linejoin="round" stroke-width="3"/>
      <path id="Trazado_5032" data-name="Trazado 5032" d="M40.311,33.687,38.95,35.57a2.218,2.218,0,0,1-3.665-.107l-1.027-1.609A3.513,3.513,0,0,0,31.3,32.233H17.118a7.378,7.378,0,0,0-7.379,7.378V60.671A6.863,6.863,0,0,0,16.6,67.535H44.193a6.864,6.864,0,0,0,6.863-6.864V39.611a7.379,7.379,0,0,0-7.379-7.378h-.517a3.51,3.51,0,0,0-2.848,1.454" transform="translate(-0.539 -1.785)" fill="#e2c960"/>
      <path id="Trazado_5033" data-name="Trazado 5033" d="M40.311,33.687,38.95,35.57a2.218,2.218,0,0,1-3.665-.107l-1.027-1.609A3.513,3.513,0,0,0,31.3,32.233H17.118a7.378,7.378,0,0,0-7.379,7.378V60.671A6.863,6.863,0,0,0,16.6,67.535H44.193a6.864,6.864,0,0,0,6.863-6.864V39.611a7.379,7.379,0,0,0-7.379-7.378h-.517A3.51,3.51,0,0,0,40.311,33.687Z" transform="translate(-0.539 -1.785)" fill="none" stroke="#5b3fab" stroke-linecap="round" stroke-linejoin="round" stroke-width="3"/>
      <path id="Trazado_5034" data-name="Trazado 5034" d="M30.775,75.17A14.182,14.182,0,0,1,16.593,60.987v-11.6a.618.618,0,0,1,.708-.613c7.154,1.076,12.847.115,16.841-3.213a.616.616,0,0,1,.852.064c2.077,2.294,5.126,3.389,9.3,3.095a.618.618,0,0,1,.663.616V60.987A14.183,14.183,0,0,1,30.775,75.17" transform="translate(-0.919 -2.516)" fill="#fff"/>
      <path id="Trazado_5035" data-name="Trazado 5035" d="M30.775,75.17A14.182,14.182,0,0,1,16.593,60.987v-11.6a.618.618,0,0,1,.708-.613c7.154,1.076,12.847.115,16.841-3.213a.616.616,0,0,1,.852.064c2.077,2.294,5.126,3.389,9.3,3.095a.618.618,0,0,1,.663.616V60.987A14.183,14.183,0,0,1,30.775,75.17Z" transform="translate(-0.919 -2.516)" fill="none" stroke="#5b3fab" stroke-linecap="round" stroke-linejoin="round" stroke-width="3"/>
      <path id="Trazado_5036" data-name="Trazado 5036" d="M119.534,18.861H92.891a2.622,2.622,0,0,0-2.623,2.621v6.549h31.888V21.482a2.622,2.622,0,0,0-2.622-2.621" transform="translate(-5 -1.045)" fill="#347ece"/>
      <path id="Trazado_5037" data-name="Trazado 5037" d="M119.534,18.861H92.891a2.622,2.622,0,0,0-2.623,2.621v6.549h31.888V21.482A2.622,2.622,0,0,0,119.534,18.861Z" transform="translate(-5 -1.045)" fill="none" stroke="#5b3fab" stroke-linecap="round" stroke-linejoin="round" stroke-width="3"/>
      <rect id="Rectángulo_464" data-name="Rectángulo 464" width="12.319" height="18.75" transform="translate(95.053 104.246)" fill="#347ece"/>
      <rect id="Rectángulo_465" data-name="Rectángulo 465" width="12.319" height="18.75" transform="translate(95.053 104.246)" fill="none" stroke="#5b3fab" stroke-linecap="round" stroke-linejoin="round" stroke-width="3"/>
      <line id="Línea_49" data-name="Línea 49" y2="20.746" transform="translate(14.886 101.154)" fill="none" stroke="#5b3fab" stroke-linecap="round" stroke-linejoin="round" stroke-width="3"/>
      <line id="Línea_50" data-name="Línea 50" y2="20.746" transform="translate(43.61 101.154)" fill="none" stroke="#5b3fab" stroke-linecap="round" stroke-linejoin="round" stroke-width="3"/>
      <path id="Trazado_5038" data-name="Trazado 5038" d="M91.188,94.687a1.781,1.781,0,0,0-1.782,1.782v3.4a1.782,1.782,0,1,0,3.565,0v-3.4a1.782,1.782,0,0,0-1.782-1.782" transform="translate(-4.952 -5.245)" fill="#5b3fa7"/>
      <path id="Trazado_5039" data-name="Trazado 5039" d="M99.191,94.687a1.781,1.781,0,0,0-1.782,1.782v3.4a1.782,1.782,0,1,0,3.565,0v-3.4a1.782,1.782,0,0,0-1.782-1.782" transform="translate(-5.395 -5.245)" fill="#5b3fa7"/>
      <path id="Trazado_5040" data-name="Trazado 5040" d="M107.194,94.687a1.781,1.781,0,0,0-1.782,1.782v3.4a1.782,1.782,0,1,0,3.565,0v-3.4a1.782,1.782,0,0,0-1.782-1.782" transform="translate(-5.839 -5.245)" fill="#5b3fa7"/>
      <path id="Trazado_5041" data-name="Trazado 5041" d="M115.2,94.687a1.782,1.782,0,0,0-1.782,1.782v3.4a1.782,1.782,0,1,0,3.565,0v-3.4a1.781,1.781,0,0,0-1.782-1.782" transform="translate(-6.282 -5.245)" fill="#5b3fa7"/>
      <path id="Trazado_5042" data-name="Trazado 5042" d="M123.2,94.687a1.782,1.782,0,0,0-1.782,1.782v3.4a1.782,1.782,0,1,0,3.565,0v-3.4a1.781,1.781,0,0,0-1.782-1.782" transform="translate(-6.725 -5.245)" fill="#5b3fa7"/>
      <path id="Trazado_5043" data-name="Trazado 5043" d="M92.971,85.153a1.783,1.783,0,0,0-3.566,0v3.4a1.783,1.783,0,0,0,3.566,0Z" transform="translate(-4.952 -4.618)" fill="#5b3fa7"/>
      <path id="Trazado_5044" data-name="Trazado 5044" d="M100.975,85.153a1.783,1.783,0,0,0-3.566,0v3.4a1.783,1.783,0,0,0,3.566,0Z" transform="translate(-5.395 -4.618)" fill="#5b3fa7"/>
      <path id="Trazado_5045" data-name="Trazado 5045" d="M108.978,85.153a1.783,1.783,0,0,0-3.566,0v3.4a1.783,1.783,0,0,0,3.566,0Z" transform="translate(-5.839 -4.618)" fill="#5b3fa7"/>
      <path id="Trazado_5046" data-name="Trazado 5046" d="M116.98,85.153a1.783,1.783,0,0,0-3.566,0v3.4a1.783,1.783,0,0,0,3.566,0Z" transform="translate(-6.282 -4.618)" fill="#5b3fa7"/>
      <path id="Trazado_5047" data-name="Trazado 5047" d="M124.983,85.153a1.783,1.783,0,0,0-3.566,0v3.4a1.783,1.783,0,0,0,3.566,0Z" transform="translate(-6.725 -4.618)" fill="#5b3fa7"/>
      <path id="Trazado_5048" data-name="Trazado 5048" d="M92.971,73.837a1.783,1.783,0,0,0-3.566,0v3.4a1.783,1.783,0,1,0,3.566,0Z" transform="translate(-4.952 -3.991)" fill="#5b3fa7"/>
      <path id="Trazado_5049" data-name="Trazado 5049" d="M100.975,73.837a1.783,1.783,0,0,0-3.566,0v3.4a1.783,1.783,0,1,0,3.566,0Z" transform="translate(-5.395 -3.991)" fill="#5b3fa7"/>
      <path id="Trazado_5050" data-name="Trazado 5050" d="M108.978,73.837a1.783,1.783,0,0,0-3.566,0v3.4a1.783,1.783,0,1,0,3.566,0Z" transform="translate(-5.839 -3.991)" fill="#5b3fa7"/>
      <path id="Trazado_5051" data-name="Trazado 5051" d="M116.98,73.837a1.783,1.783,0,0,0-3.566,0v3.4a1.783,1.783,0,1,0,3.566,0Z" transform="translate(-6.282 -3.991)" fill="#5b3fa7"/>
      <path id="Trazado_5052" data-name="Trazado 5052" d="M124.983,73.837a1.783,1.783,0,0,0-3.566,0v3.4a1.783,1.783,0,1,0,3.566,0Z" transform="translate(-6.725 -3.991)" fill="#5b3fa7"/>
      <path id="Trazado_5053" data-name="Trazado 5053" d="M92.971,62.521a1.783,1.783,0,0,0-3.566,0v3.4a1.783,1.783,0,0,0,3.566,0Z" transform="translate(-4.952 -3.364)" fill="#5b3fa7"/>
      <path id="Trazado_5054" data-name="Trazado 5054" d="M100.975,62.521a1.783,1.783,0,0,0-3.566,0v3.4a1.783,1.783,0,0,0,3.566,0Z" transform="translate(-5.395 -3.364)" fill="#5b3fa7"/>
      <path id="Trazado_5055" data-name="Trazado 5055" d="M108.978,62.521a1.783,1.783,0,0,0-3.566,0v3.4a1.783,1.783,0,0,0,3.566,0Z" transform="translate(-5.839 -3.364)" fill="#5b3fa7"/>
      <path id="Trazado_5056" data-name="Trazado 5056" d="M116.98,62.521a1.783,1.783,0,0,0-3.566,0v3.4a1.783,1.783,0,0,0,3.566,0Z" transform="translate(-6.282 -3.364)" fill="#5b3fa7"/>
      <path id="Trazado_5057" data-name="Trazado 5057" d="M124.983,62.521a1.783,1.783,0,0,0-3.566,0v3.4a1.783,1.783,0,0,0,3.566,0Z" transform="translate(-6.725 -3.364)" fill="#5b3fa7"/>
      <path id="Trazado_5058" data-name="Trazado 5058" d="M92.971,51.205a1.783,1.783,0,0,0-3.566,0v3.4a1.783,1.783,0,1,0,3.566,0Z" transform="translate(-4.952 -2.737)" fill="#5b3fa7"/>
      <path id="Trazado_5059" data-name="Trazado 5059" d="M100.975,51.205a1.783,1.783,0,0,0-3.566,0v3.4a1.783,1.783,0,1,0,3.566,0Z" transform="translate(-5.395 -2.737)" fill="#5b3fa7"/>
      <path id="Trazado_5060" data-name="Trazado 5060" d="M108.978,51.205a1.783,1.783,0,0,0-3.566,0v3.4a1.783,1.783,0,1,0,3.566,0Z" transform="translate(-5.839 -2.737)" fill="#5b3fa7"/>
      <path id="Trazado_5061" data-name="Trazado 5061" d="M116.98,51.205a1.783,1.783,0,0,0-3.566,0v3.4a1.783,1.783,0,1,0,3.566,0Z" transform="translate(-6.282 -2.737)" fill="#5b3fa7"/>
      <path id="Trazado_5062" data-name="Trazado 5062" d="M124.983,51.205a1.783,1.783,0,0,0-3.566,0v3.4a1.783,1.783,0,1,0,3.566,0Z" transform="translate(-6.725 -2.737)" fill="#5b3fa7"/>
      <path id="Trazado_5063" data-name="Trazado 5063" d="M92.971,39.889a1.783,1.783,0,0,0-3.566,0v3.4a1.783,1.783,0,1,0,3.566,0Z" transform="translate(-4.952 -2.111)" fill="#5b3fa7"/>
      <path id="Trazado_5064" data-name="Trazado 5064" d="M100.975,39.889a1.783,1.783,0,0,0-3.566,0v3.4a1.783,1.783,0,1,0,3.566,0Z" transform="translate(-5.395 -2.111)" fill="#5b3fa7"/>
      <path id="Trazado_5065" data-name="Trazado 5065" d="M108.978,39.889a1.783,1.783,0,0,0-3.566,0v3.4a1.783,1.783,0,1,0,3.566,0Z" transform="translate(-5.839 -2.111)" fill="#5b3fa7"/>
      <path id="Trazado_5066" data-name="Trazado 5066" d="M116.98,39.889a1.783,1.783,0,0,0-3.566,0v3.4a1.783,1.783,0,1,0,3.566,0Z" transform="translate(-6.282 -2.111)" fill="#5b3fa7"/>
      <path id="Trazado_5067" data-name="Trazado 5067" d="M124.983,39.889a1.783,1.783,0,0,0-3.566,0v3.4a1.783,1.783,0,1,0,3.566,0Z" transform="translate(-6.725 -2.111)" fill="#5b3fa7"/>
      <line id="Línea_51" data-name="Línea 51" y1="15.426" transform="translate(101.591 1.417)" fill="none" stroke="#5b3fab" stroke-linecap="round" stroke-linejoin="round" stroke-width="3"/>
    </g>
  </g>
</svg>
