<svg id="Grupo_947" data-name="Grupo 947" xmlns="http://www.w3.org/2000/svg" xmlns:xlink="http://www.w3.org/1999/xlink" width="117.187" height="117.187" viewBox="0 0 117.187 117.187">
  <defs>
    <clipPath id="clip-path">
      <rect id="Rectángulo_472" data-name="Rectángulo 472" width="117.187" height="117.187" fill="none"/>
    </clipPath>
  </defs>
  <g id="Grupo_944" data-name="Grupo 944">
    <g id="Grupo_943" data-name="Grupo 943" clip-path="url(#clip-path)">
      <path id="Trazado_5069" data-name="Trazado 5069" d="M61.1,121.809A40.933,40.933,0,0,1,20.21,80.923V51.191H40.152V80.922a20.944,20.944,0,1,0,41.888,0V51.191h19.942V80.922A40.933,40.933,0,0,1,61.1,121.809" transform="translate(-2.503 -6.339)" fill="#fff"/>
      <path id="Trazado_5070" data-name="Trazado 5070" d="M61.1,121.809A40.933,40.933,0,0,1,20.21,80.923V51.191H40.152V80.922a20.944,20.944,0,1,0,41.888,0V51.191h19.942V80.922A40.933,40.933,0,0,1,61.1,121.809Z" transform="translate(-2.503 -6.339)" fill="none" stroke="#5b3fa7" stroke-linecap="round" stroke-linejoin="round" stroke-width="3"/>
      <rect id="Rectángulo_467" data-name="Rectángulo 467" width="19.942" height="9.831" transform="translate(17.707 44.852)" fill="#430080"/>
      <rect id="Rectángulo_468" data-name="Rectángulo 468" width="19.942" height="9.831" transform="translate(17.707 44.852)" fill="none" stroke="#430080" stroke-linecap="round" stroke-linejoin="round" stroke-width="3"/>
      <rect id="Rectángulo_469" data-name="Rectángulo 469" width="19.942" height="9.831" transform="translate(79.538 44.852)" fill="#430080"/>
      <rect id="Rectángulo_470" data-name="Rectángulo 470" width="19.942" height="9.831" transform="translate(79.538 44.852)" fill="none" stroke="#430080" stroke-linecap="round" stroke-linejoin="round" stroke-width="3"/>
      <path id="Trazado_5071" data-name="Trazado 5071" d="M127.628,39.322H114.506a1.8,1.8,0,0,1-1.8-1.8V24.4a1.8,1.8,0,0,1,1.8-1.8h13.122a1.8,1.8,0,0,1,1.8,1.8V37.521a1.8,1.8,0,0,1-1.8,1.8" transform="translate(-13.957 -2.799)" fill="#2abb96"/>
      <path id="Rectángulo_471" data-name="Rectángulo 471" d="M2.055,0H14.667A2.053,2.053,0,0,1,16.72,2.053V14.667a2.053,2.053,0,0,1-2.053,2.053H2.053A2.053,2.053,0,0,1,0,14.667V2.055A2.055,2.055,0,0,1,2.055,0Z" transform="translate(98.75 19.803)" fill="none" stroke="#5b3fab" stroke-linecap="round" stroke-linejoin="round" stroke-width="3"/>
      <path id="Trazado_5072" data-name="Trazado 5072" d="M12.613,20.793,1.96,38.332H23.265Z" transform="translate(-0.243 -2.575)" fill="#e2c960"/>
      <path id="Trazado_5073" data-name="Trazado 5073" d="M12.613,20.793,1.96,38.332H23.265Z" transform="translate(-0.243 -2.575)" fill="none" stroke="#5b3fab" stroke-linecap="round" stroke-linejoin="round" stroke-width="3"/>
      <path id="Trazado_5074" data-name="Trazado 5074" d="M14.119,20.793" transform="translate(-1.748 -2.575)" fill="#2abb96"/>
      <path id="Trazado_5075" data-name="Trazado 5075" d="M14.119,20.793" transform="translate(-1.748 -2.575)" fill="none" stroke="#5b3fab" stroke-linecap="round" stroke-linejoin="round" stroke-width="3"/>
      <path id="Trazado_5076" data-name="Trazado 5076" d="M95.425,10.622a8.662,8.662,0,1,1-8.663-8.663,8.662,8.662,0,0,1,8.663,8.663" transform="translate(-9.671 -0.243)" fill="#877bcc"/>
      <path id="Trazado_5077" data-name="Trazado 5077" d="M95.425,10.622a8.662,8.662,0,1,1-8.663-8.663A8.662,8.662,0,0,1,95.425,10.622Z" transform="translate(-9.671 -0.243)" fill="none" stroke="#5b3fab" stroke-linecap="round" stroke-linejoin="round" stroke-width="3"/>
      <path id="Trazado_5078" data-name="Trazado 5078" d="M87.987,1.959" transform="translate(-10.896 -0.243)" fill="#da4a54"/>
      <path id="Trazado_5079" data-name="Trazado 5079" d="M51.332,1.959h-10.3l-5.152,8.924,5.152,8.924h10.3l5.152-8.924Z" transform="translate(-4.443 -0.243)" fill="#347ece"/>
      <path id="Trazado_5080" data-name="Trazado 5080" d="M51.332,1.959h-10.3l-5.152,8.924,5.152,8.924h10.3l5.152-8.924Z" transform="translate(-4.443 -0.243)" fill="none" stroke="#5b3fab" stroke-linecap="round" stroke-linejoin="round" stroke-width="3"/>
      <path id="Trazado_5081" data-name="Trazado 5081" d="M53.516,1.959" transform="translate(-6.627 -0.243)" fill="#2abb96"/>
      <path id="Trazado_5082" data-name="Trazado 5082" d="M53.516,1.959" transform="translate(-6.627 -0.243)" fill="none" stroke="#5b3fab" stroke-linecap="round" stroke-linejoin="round" stroke-width="3"/>
      <path id="Trazado_5083" data-name="Trazado 5083" d="M42.887,3.918" transform="translate(-5.311 -0.485)" fill="#2abb96"/>
      <path id="Trazado_5084" data-name="Trazado 5084" d="M42.887,3.918" transform="translate(-5.311 -0.485)" fill="none" stroke="#5b3fab" stroke-linecap="round" stroke-linejoin="round" stroke-width="3"/>
      <path id="Trazado_5085" data-name="Trazado 5085" d="M42.752,30.559v7.323a1.716,1.716,0,1,0,3.433,0V30.559a1.716,1.716,0,1,0-3.433,0" transform="translate(-5.294 -3.572)" fill="#5b3fa7"/>
      <path id="Trazado_5086" data-name="Trazado 5086" d="M98.89,27.72v7.323a1.716,1.716,0,1,0,3.433,0V27.72a1.716,1.716,0,1,0-3.433,0" transform="translate(-12.246 -3.22)" fill="#5b3fa7"/>
      <path id="Trazado_5087" data-name="Trazado 5087" d="M51.716,36.28A1.717,1.717,0,0,0,50,38v7.458a1.716,1.716,0,1,0,3.433,0V38a1.717,1.717,0,0,0-1.716-1.717" transform="translate(-6.192 -4.493)" fill="#5b3fa7"/>
    </g>
  </g>
  <g id="Grupo_946" data-name="Grupo 946">
    <g id="Grupo_945" data-name="Grupo 945" clip-path="url(#clip-path)">
      <path id="Trazado_5088" data-name="Trazado 5088" d="M94.394,32.944a1.716,1.716,0,0,0-1.716,1.716v7.459a1.716,1.716,0,1,0,3.433,0V34.66a1.716,1.716,0,0,0-1.716-1.716" transform="translate(-11.477 -4.08)" fill="#5b3fa7"/>
    </g>
  </g>
</svg>
