<svg xmlns="http://www.w3.org/2000/svg" width="92.39" height="25.737" viewBox="0 0 92.39 25.737">
  <g id="Grupo_253" data-name="Grupo 253" transform="translate(-123.983 -34.636)">
    <path id="Trazado_1" data-name="Trazado 1" d="M142.185,46.389a2.341,2.341,0,0,1-.742,1.822,2.52,2.52,0,0,1-1.755.674,2.56,2.56,0,0,1-1.788-.674,2.341,2.341,0,0,1-.742-1.822,2.384,2.384,0,0,1,.742-1.855,2.565,2.565,0,0,1,1.788-.674,2.525,2.525,0,0,1,1.755.674,2.384,2.384,0,0,1,.742,1.855m-.438,22.8h-4.082V51.551h4.082Z" transform="translate(-13.176 -9.224)" fill="#43008a"/>
    <path id="Trazado_2" data-name="Trazado 2" d="M162.833,45.7h4.25V69.073h-4.25V58.717H152.679V69.073h-4.25V45.7h4.25V55.04h10.153Z" transform="translate(-12.439 -9.104)" fill="#43008a"/>
    <path id="Trazado_3" data-name="Trazado 3" d="M187.386,68.18q-1.181.3-3.069.624a24.942,24.942,0,0,1-4.149.321,9.161,9.161,0,0,1-3.559-.607,5.709,5.709,0,0,1-2.294-1.687,6.625,6.625,0,0,1-1.232-2.58,13.7,13.7,0,0,1-.371-3.289V51.078h4.082v9.243a7.457,7.457,0,0,0,.826,4.048,3.236,3.236,0,0,0,2.884,1.215q.742,0,1.569-.067a8.156,8.156,0,0,0,1.231-.169V51.078h4.082Z" transform="translate(-10.85 -8.752)" fill="#43008a"/>
    <path id="Trazado_4" data-name="Trazado 4" d="M193.26,51.675a27.364,27.364,0,0,1,3.069-.641,26.456,26.456,0,0,1,4.183-.3,9.629,9.629,0,0,1,3.61.591,5.625,5.625,0,0,1,2.31,1.652,6.309,6.309,0,0,1,1.215,2.563A14.306,14.306,0,0,1,208,58.826v9.917H203.92V59.468a13.507,13.507,0,0,0-.185-2.412,4.309,4.309,0,0,0-.607-1.619,2.432,2.432,0,0,0-1.147-.911,4.839,4.839,0,0,0-1.771-.287,13.676,13.676,0,0,0-1.619.1q-.844.1-1.248.169V68.743H193.26Z" transform="translate(-9.506 -8.775)" fill="#43008a"/>
    <path id="Trazado_5" data-name="Trazado 5" d="M213.491,46.75l4.082-.674v5.329h6.274v3.407h-6.274V62a5.224,5.224,0,0,0,.674,3.036,2.671,2.671,0,0,0,2.294.911,7.459,7.459,0,0,0,1.973-.237,13.29,13.29,0,0,0,1.366-.438l.675,3.238a15.429,15.429,0,0,1-1.856.624,10.113,10.113,0,0,1-2.7.32,8.532,8.532,0,0,1-3.154-.506,4.643,4.643,0,0,1-2.007-1.467,5.813,5.813,0,0,1-1.045-2.327,14.46,14.46,0,0,1-.3-3.121Z" transform="translate(-8.183 -9.079)" fill="#43008a"/>
  </g>
</svg>
